<svg width="312" height="272" viewBox="0 0 312 272" fill="none" xmlns="http://www.w3.org/2000/svg">
<path d="M209.88 91.2471C187.77 91.2471 165.263 90.3505 144.209 84.4959C123.552 78.7732 104.585 67.6705 87.6786 54.8274C76.6102 46.4675 66.5456 39.8217 52.1752 40.8239C38.1046 41.5929 24.6558 46.8635 13.8189 55.8559C-4.46115 71.6791 -1.71386 101.295 5.60342 122.102C16.5926 153.432 50.0355 175.136 78.4593 189.325C111.295 205.702 147.379 215.195 183.543 220.681C215.242 225.481 255.976 228.988 283.449 208.312C308.676 189.325 315.598 145.969 309.416 116.696C307.918 108.04 303.306 100.229 296.446 94.7282C278.721 81.8059 252.278 90.4296 232.36 90.8779C224.964 91.0361 217.435 91.2207 209.88 91.2471Z" fill="#DEC281" fill-opacity="0.2"/>
<path d="M155.78 271.974C209.337 271.974 252.753 269.271 252.753 265.935C252.753 262.6 209.337 259.896 155.78 259.896C102.222 259.896 58.8057 262.6 58.8057 265.935C58.8057 269.271 102.222 271.974 155.78 271.974Z" fill="#DEC281" fill-opacity="0.2"/>
<path d="M225.916 11.3448L76.5718 65.1984C71.4262 67.0539 68.7616 72.7225 70.6202 77.8594L102.129 164.945C103.987 170.082 109.665 172.742 114.811 170.886L264.155 117.033C269.3 115.177 271.965 109.509 270.106 104.372L238.598 17.2865C236.739 12.1495 231.061 9.48932 225.916 11.3448Z" fill="#DEC281"/>
<path d="M111.479 217.411C112.909 217.411 114.068 216.253 114.068 214.826C114.068 213.399 112.909 212.242 111.479 212.242C110.05 212.242 108.891 213.399 108.891 214.826C108.891 216.253 110.05 217.411 111.479 217.411Z" fill="#CFCFCF"/>
<path d="M180.215 5.16891C181.645 5.16891 182.804 4.01181 182.804 2.58445C182.804 1.1571 181.645 0 180.215 0C178.785 0 177.626 1.1571 177.626 2.58445C177.626 4.01181 178.785 5.16891 180.215 5.16891Z" fill="#CFCFCF"/>
<path d="M108.283 21.8623V33.2286" stroke="#DEC281" stroke-linecap="round" stroke-linejoin="round"/>
<path d="M102.577 27.5586H113.963" stroke="#DEC281" stroke-linecap="round" stroke-linejoin="round"/>
<path d="M275.312 63.8728V75.2128" stroke="#DEC281" stroke-linecap="round" stroke-linejoin="round"/>
<path d="M269.607 69.543H280.992" stroke="#DEC281" stroke-linecap="round" stroke-linejoin="round"/>
<path d="M231.614 69.2363L74.5868 92.7768C69.1765 93.5879 65.4491 98.6239 66.2616 104.025L80.0345 195.591C80.847 200.992 85.8915 204.713 91.3018 203.902L248.329 180.361C253.739 179.55 257.467 174.514 256.654 169.113L242.881 77.5475C242.069 72.1463 237.024 68.4252 231.614 69.2363Z" fill="white" stroke="#DEC281" stroke-linecap="round" stroke-linejoin="round"/>
<path d="M222.293 83.7698L209.075 85.7514C206.867 86.0823 205.346 88.1371 205.678 90.3408L207.663 103.537C207.994 105.741 210.052 107.259 212.26 106.928L225.478 104.946C227.686 104.615 229.206 102.561 228.875 100.357L226.89 87.1608C226.558 84.9571 224.5 83.4389 222.293 83.7698Z" fill="#DEC281"/>
<path d="M133.252 162.867L94.6153 168.66C93.4033 168.841 92.5684 169.969 92.7504 171.179L92.923 172.327C93.105 173.537 94.235 174.37 95.4469 174.188L134.083 168.396C135.295 168.215 136.13 167.087 135.948 165.877L135.776 164.729C135.594 163.519 134.464 162.686 133.252 162.867Z" fill="#DEC281"/>
<path d="M159.372 170.265L96.8589 179.637C95.3296 179.866 94.276 181.29 94.5057 182.816C94.7353 184.343 96.1612 185.395 97.6905 185.166L160.204 175.794C161.733 175.565 162.787 174.141 162.557 172.615C162.327 171.088 160.901 170.036 159.372 170.265Z" fill="#DEC281"/>
</svg>
