<svg width="30" height="30" viewBox="0 0 30 30" fill="none" xmlns="http://www.w3.org/2000/svg">
<path d="M1.25 6.25C1.25 5.55965 1.80965 5 2.5 5H27.5C28.1904 5 28.75 5.55965 28.75 6.25V23.75C28.75 24.4404 28.1904 25 27.5 25H2.5C1.80965 25 1.25 24.4404 1.25 23.75V6.25ZM16.25 10V12.5H23.75V10H16.25ZM22.5 15H16.25V17.5H22.5V15ZM13.125 12.5C13.125 10.7741 11.7259 9.375 10 9.375C8.27411 9.375 6.875 10.7741 6.875 12.5C6.875 14.2259 8.27411 15.625 10 15.625C11.7259 15.625 13.125 14.2259 13.125 12.5ZM10 16.875C7.58375 16.875 5.625 18.8338 5.625 21.25H14.375C14.375 18.8338 12.4162 16.875 10 16.875Z" fill="url(#paint0_linear_211_12024)"/>
<defs>
<linearGradient id="paint0_linear_211_12024" x1="15" y1="5" x2="15" y2="25" gradientUnits="userSpaceOnUse">
<stop stop-color="#058F82"/>
<stop offset="1" stop-color="#054C45"/>
</linearGradient>
</defs>
</svg>
