<svg width="30" height="30" viewBox="0 0 30 30" fill="none" xmlns="http://www.w3.org/2000/svg">
<path d="M25.8917 10.1601L25.5835 10.8672C25.358 11.3849 24.642 11.3849 24.4164 10.8672L24.1083 10.1601C23.5589 8.89934 22.5694 7.89551 21.3346 7.34635L20.385 6.92403C19.8716 6.69566 19.8716 5.94851 20.385 5.72015L21.2815 5.32143C22.548 4.75814 23.5553 3.71716 24.0951 2.41354L24.4116 1.64941C24.6323 1.11686 25.3678 1.11686 25.5883 1.64941L25.9048 2.41354C26.4448 3.71716 27.452 4.75814 28.7185 5.32143L29.6149 5.72015C30.1284 5.94851 30.1284 6.69566 29.6149 6.92403L28.6654 7.34635C27.4306 7.89551 26.4411 8.89934 25.8917 10.1601ZM3.73975 3.75H17.5V6.25H5V23.75L16.6154 12.1331C17.1035 11.6449 17.8949 11.6449 18.3831 12.133L25 18.763V13.75H27.5V25.0082C27.5 25.694 26.9309 26.25 26.2602 26.25H3.73975C3.05506 26.25 2.5 25.6939 2.5 25.0082V4.99175C2.5 4.30595 3.06914 3.75 3.73975 3.75ZM10 13.75C8.61929 13.75 7.5 12.6308 7.5 11.25C7.5 9.86929 8.61929 8.75 10 8.75C11.3807 8.75 12.5 9.86929 12.5 11.25C12.5 12.6308 11.3807 13.75 10 13.75Z" fill="url(#paint0_linear_211_11921)"/>
<defs>
<linearGradient id="paint0_linear_211_11921" x1="16.25" y1="1.25" x2="16.25" y2="26.25" gradientUnits="userSpaceOnUse">
<stop stop-color="#058F82"/>
<stop offset="1" stop-color="#054C45"/>
</linearGradient>
</defs>
</svg>
