<svg width="30" height="30" viewBox="0 0 30 30" fill="none" xmlns="http://www.w3.org/2000/svg">
<path d="M22.5 10H25C25.6904 10 26.25 10.5597 26.25 11.25V26.25C26.25 26.9404 25.6904 27.5 25 27.5H5C4.30965 27.5 3.75 26.9404 3.75 26.25V11.25C3.75 10.5597 4.30965 10 5 10H7.5V8.75C7.5 4.60786 10.8579 1.25 15 1.25C19.1421 1.25 22.5 4.60786 22.5 8.75V10ZM20 10V8.75C20 5.98857 17.7614 3.75 15 3.75C12.2386 3.75 10 5.98857 10 8.75V10H20ZM13.75 17.5V20H16.25V17.5H13.75ZM8.75 17.5V20H11.25V17.5H8.75ZM18.75 17.5V20H21.25V17.5H18.75Z" fill="url(#paint0_linear_211_12006)"/>
<defs>
<linearGradient id="paint0_linear_211_12006" x1="15" y1="1.25" x2="15" y2="27.5" gradientUnits="userSpaceOnUse">
<stop stop-color="#06756B"/>
<stop offset="1" stop-color="#054C45"/>
</linearGradient>
</defs>
</svg>
