<?xml version="1.0" encoding="utf-8"?>
<!-- Generator: Adobe Illustrator 24.3.0, SVG Export Plug-In . SVG Version: 6.00 Build 0)  -->
<svg version="1.1" id="Layer_1" xmlns="http://www.w3.org/2000/svg" xmlns:xlink="http://www.w3.org/1999/xlink" x="0px" y="0px"
	 viewBox="0 0 278.64 47.58" style="enable-background:new 0 0 278.64 47.58;" xml:space="preserve">
<style type="text/css">
	.st0{fill:#2B3A85;}
	.st1{fill:#52B0B4;}
	.st2{fill:#E62855;}
	.st3{fill:#F18B26;}
	.st4{fill:#FBC010;}
	.st5{fill:#009B7C;}
	.st6{fill:#A32482;}
</style>
<g>
	<path class="st0" d="M7.03,44.17c0,0.19-0.09,0.3-0.27,0.33C6.4,44.56,6,44.62,5.55,44.66c-0.45,0.05-1.02,0.07-1.72,0.07
		c-0.46,0-0.92-0.08-1.38-0.25c-0.46-0.16-0.87-0.43-1.23-0.79c-0.36-0.36-0.65-0.84-0.88-1.44C0.11,41.66,0,40.94,0,40.08v-2
		c0-0.91,0.12-1.66,0.35-2.26c0.24-0.6,0.54-1.08,0.92-1.44c0.37-0.36,0.8-0.61,1.27-0.75c0.47-0.14,0.95-0.22,1.42-0.22
		c0.69,0,1.26,0.02,1.71,0.07c0.45,0.04,0.81,0.09,1.1,0.14c0.07,0.01,0.13,0.03,0.18,0.06c0.05,0.03,0.07,0.08,0.07,0.16v0.75
		c0,0.1-0.06,0.15-0.19,0.15H6.77c-0.22-0.02-0.43-0.04-0.63-0.05c-0.2-0.02-0.41-0.03-0.63-0.03c-0.22,0-0.45-0.01-0.7-0.01
		c-0.25,0-0.53-0.01-0.85-0.01c-0.35,0-0.68,0.05-0.99,0.16c-0.32,0.1-0.59,0.29-0.84,0.55c-0.24,0.26-0.43,0.62-0.58,1.06
		c-0.14,0.44-0.21,1-0.21,1.67v2c0,0.62,0.06,1.14,0.19,1.58c0.13,0.43,0.31,0.79,0.53,1.07C2.3,43,2.56,43.21,2.86,43.33
		c0.3,0.12,0.62,0.19,0.97,0.19c0.45,0,0.83-0.01,1.14-0.03c0.31-0.02,0.55-0.04,0.72-0.06v-4.28c0-0.08,0.02-0.15,0.07-0.21
		c0.05-0.06,0.11-0.09,0.19-0.09h0.8c0.08,0,0.15,0.03,0.2,0.09c0.06,0.06,0.08,0.13,0.08,0.21V44.17z"/>
	<path class="st0" d="M14.14,39.79c0-0.85-0.16-1.45-0.48-1.81c-0.32-0.36-0.81-0.54-1.46-0.54c-0.64,0-1.13,0.19-1.47,0.57
		c-0.34,0.38-0.51,0.97-0.51,1.78v0.13h3.92V39.79z M15.46,40.6c0,0.22-0.09,0.33-0.28,0.33h-4.95v0.21c0,0.89,0.17,1.52,0.52,1.88
		c0.34,0.37,0.86,0.55,1.54,0.55c0.43,0,0.89-0.01,1.38-0.05c0.49-0.03,0.9-0.07,1.25-0.12h0.07c0.06,0,0.11,0.01,0.16,0.04
		c0.05,0.03,0.07,0.08,0.07,0.16v0.51c0,0.1-0.02,0.18-0.06,0.23c-0.04,0.06-0.12,0.09-0.24,0.11c-0.42,0.08-0.84,0.14-1.26,0.19
		c-0.42,0.04-0.88,0.07-1.38,0.07c-0.42,0-0.84-0.06-1.24-0.17c-0.4-0.11-0.76-0.31-1.07-0.58c-0.31-0.27-0.56-0.64-0.75-1.1
		c-0.19-0.46-0.29-1.04-0.29-1.73v-1.35c0-1.08,0.28-1.93,0.84-2.56c0.56-0.63,1.37-0.94,2.44-0.94c0.54,0,1.01,0.08,1.42,0.25
		c0.4,0.17,0.74,0.4,1.01,0.7c0.27,0.3,0.48,0.67,0.61,1.11c0.14,0.43,0.21,0.91,0.21,1.44V40.6z"/>
	<path class="st0" d="M23.45,44.32c0,0.08-0.03,0.15-0.09,0.21c-0.06,0.06-0.13,0.09-0.21,0.09h-0.71c-0.08,0-0.15-0.03-0.21-0.09
		c-0.06-0.06-0.09-0.13-0.09-0.21V39.4c0-0.38-0.03-0.69-0.1-0.95c-0.06-0.25-0.16-0.46-0.3-0.61c-0.13-0.15-0.3-0.26-0.51-0.32
		c-0.21-0.06-0.45-0.1-0.72-0.1c-0.32,0-0.64,0.06-0.98,0.17c-0.33,0.11-0.67,0.25-1.02,0.42v6.31c0,0.08-0.03,0.15-0.09,0.21
		c-0.06,0.06-0.13,0.09-0.21,0.09h-0.72c-0.08,0-0.14-0.03-0.2-0.09c-0.05-0.06-0.08-0.13-0.08-0.21V36.7
		c0-0.08,0.03-0.15,0.08-0.21c0.06-0.06,0.12-0.09,0.2-0.09h0.74c0.08,0,0.14,0.03,0.2,0.09c0.06,0.06,0.08,0.13,0.08,0.21v0.28
		c0.41-0.23,0.8-0.4,1.15-0.52c0.35-0.11,0.75-0.17,1.2-0.17c0.9,0,1.55,0.27,1.96,0.81c0.41,0.54,0.61,1.31,0.61,2.3V44.32z"/>
	<path class="st0" d="M30.41,39.79c0-0.85-0.16-1.45-0.48-1.81c-0.32-0.36-0.81-0.54-1.45-0.54c-0.64,0-1.13,0.19-1.47,0.57
		c-0.34,0.38-0.51,0.97-0.51,1.78v0.13h3.92V39.79z M31.73,40.6c0,0.22-0.09,0.33-0.28,0.33H26.5v0.21c0,0.89,0.17,1.52,0.52,1.88
		c0.35,0.37,0.86,0.55,1.54,0.55c0.43,0,0.89-0.01,1.38-0.05c0.49-0.03,0.9-0.07,1.25-0.12h0.07c0.06,0,0.11,0.01,0.16,0.04
		c0.05,0.03,0.07,0.08,0.07,0.16v0.51c0,0.1-0.02,0.18-0.06,0.23c-0.04,0.06-0.12,0.09-0.24,0.11c-0.42,0.08-0.85,0.14-1.26,0.19
		c-0.42,0.04-0.88,0.07-1.38,0.07c-0.42,0-0.84-0.06-1.24-0.17c-0.4-0.11-0.76-0.31-1.07-0.58c-0.31-0.27-0.56-0.64-0.75-1.1
		c-0.19-0.46-0.29-1.04-0.29-1.73v-1.35c0-1.08,0.28-1.93,0.84-2.56c0.56-0.63,1.37-0.94,2.44-0.94c0.54,0,1.01,0.08,1.42,0.25
		c0.4,0.17,0.74,0.4,1.01,0.7c0.27,0.3,0.47,0.67,0.61,1.11c0.14,0.43,0.21,0.91,0.21,1.44V40.6z"/>
	<path class="st0" d="M37.15,37.18c0,0.17-0.1,0.25-0.31,0.25c-0.35,0-0.68,0.05-1,0.14c-0.32,0.09-0.67,0.26-1.04,0.49v6.26
		c0,0.08-0.03,0.15-0.09,0.21c-0.06,0.06-0.13,0.09-0.21,0.09h-0.72c-0.08,0-0.15-0.03-0.2-0.09c-0.06-0.06-0.08-0.13-0.08-0.21
		V36.7c0-0.08,0.03-0.15,0.08-0.21c0.05-0.06,0.12-0.09,0.2-0.09h0.69c0.08,0,0.14,0.03,0.2,0.09c0.06,0.06,0.08,0.13,0.08,0.21
		v0.31c0.37-0.26,0.73-0.44,1.07-0.55c0.34-0.11,0.68-0.16,1.01-0.16c0.21,0,0.31,0.09,0.31,0.27V37.18z"/>
	<path class="st0" d="M42.52,40.65h-1.09c-0.44,0-0.81,0.03-1.11,0.08c-0.3,0.06-0.53,0.14-0.69,0.25
		c-0.17,0.11-0.29,0.26-0.35,0.45c-0.07,0.19-0.1,0.41-0.1,0.68v0.18c0,0.54,0.12,0.9,0.36,1.08c0.24,0.18,0.57,0.28,1,0.28
		c0.35,0,0.67-0.05,0.99-0.15c0.32-0.1,0.65-0.25,1.01-0.45V40.65z M43.82,44.32c0,0.08-0.03,0.15-0.09,0.21
		c-0.06,0.06-0.13,0.09-0.21,0.09h-0.68c-0.08,0-0.15-0.03-0.21-0.09c-0.06-0.06-0.09-0.13-0.09-0.21v-0.33
		c-0.36,0.21-0.72,0.38-1.09,0.52c-0.37,0.14-0.77,0.21-1.18,0.21c-0.31,0-0.62-0.04-0.91-0.11c-0.29-0.07-0.55-0.21-0.77-0.4
		c-0.22-0.19-0.4-0.44-0.53-0.75c-0.13-0.31-0.2-0.7-0.2-1.17v-0.18c0-0.4,0.06-0.75,0.18-1.05c0.12-0.3,0.33-0.56,0.61-0.76
		c0.28-0.2,0.65-0.36,1.1-0.46c0.45-0.1,1.01-0.15,1.67-0.15h1.09v-0.6c0-0.63-0.12-1.07-0.36-1.32c-0.24-0.25-0.65-0.37-1.23-0.37
		c-0.48,0-0.91,0.01-1.27,0.04c-0.36,0.03-0.69,0.05-0.99,0.08H38.6c-0.07,0-0.13-0.02-0.19-0.05c-0.05-0.03-0.08-0.09-0.08-0.19
		v-0.52c0-0.16,0.1-0.25,0.31-0.28c0.31-0.05,0.64-0.09,1-0.13c0.36-0.04,0.79-0.06,1.29-0.06c1.03,0,1.76,0.25,2.21,0.75
		c0.45,0.5,0.67,1.19,0.67,2.06V44.32z"/>
	<path class="st0" d="M47.27,44.32c0,0.08-0.02,0.15-0.07,0.21c-0.05,0.06-0.11,0.09-0.19,0.09h-0.77c-0.08,0-0.14-0.03-0.19-0.09
		c-0.05-0.06-0.07-0.13-0.07-0.21V33.66c0-0.08,0.02-0.15,0.07-0.2c0.05-0.05,0.11-0.08,0.19-0.08h0.77c0.08,0,0.14,0.03,0.19,0.08
		c0.05,0.06,0.07,0.12,0.07,0.2V44.32z"/>
	<path class="st0" d="M59.41,44.44c0,0.05-0.01,0.09-0.04,0.13c-0.02,0.04-0.06,0.06-0.11,0.08c-0.14,0.02-0.33,0.03-0.56,0.04
		c-0.24,0-0.49,0.01-0.76,0.02c-0.27,0.01-0.54,0.01-0.82,0.01h-0.74c-1.04,0-1.83-0.21-2.36-0.64c-0.53-0.43-0.79-1.14-0.79-2.14
		v-5.76c0-1,0.26-1.71,0.79-2.14c0.53-0.43,1.31-0.64,2.36-0.64h0.72l0.81,0.03c0.27,0,0.52,0.01,0.75,0.03l0.59,0.03
		c0.05,0.01,0.09,0.03,0.11,0.07c0.02,0.04,0.04,0.08,0.04,0.13v0.75c0,0.12-0.05,0.18-0.16,0.18h-2.85c-0.39,0-0.71,0.03-0.95,0.08
		c-0.24,0.06-0.42,0.14-0.55,0.27c-0.13,0.13-0.22,0.29-0.26,0.49c-0.04,0.2-0.07,0.44-0.07,0.72v2.08h4.54
		c0.08,0,0.15,0.03,0.21,0.09c0.06,0.06,0.09,0.13,0.09,0.21v0.57c0,0.08-0.03,0.15-0.09,0.21c-0.06,0.06-0.13,0.09-0.21,0.09h-4.54
		v2.51c0,0.29,0.02,0.53,0.07,0.73c0.04,0.19,0.13,0.35,0.26,0.48c0.13,0.12,0.31,0.21,0.55,0.27c0.24,0.06,0.55,0.08,0.95,0.08
		h2.85c0.11,0,0.16,0.06,0.16,0.18V44.44z"/>
	<path class="st0" d="M67.45,44.32c0,0.08-0.03,0.15-0.09,0.21c-0.06,0.06-0.13,0.09-0.21,0.09h-0.71c-0.08,0-0.15-0.03-0.21-0.09
		c-0.06-0.06-0.09-0.13-0.09-0.21V39.4c0-0.38-0.03-0.69-0.1-0.95c-0.06-0.25-0.16-0.46-0.3-0.61c-0.13-0.15-0.3-0.26-0.51-0.32
		c-0.21-0.06-0.45-0.1-0.72-0.1c-0.32,0-0.64,0.06-0.98,0.17c-0.33,0.11-0.67,0.25-1.02,0.42v6.31c0,0.08-0.03,0.15-0.09,0.21
		c-0.06,0.06-0.13,0.09-0.21,0.09h-0.72c-0.08,0-0.15-0.03-0.2-0.09c-0.05-0.06-0.08-0.13-0.08-0.21V36.7
		c0-0.08,0.03-0.15,0.08-0.21c0.05-0.06,0.12-0.09,0.2-0.09h0.74c0.08,0,0.15,0.03,0.2,0.09c0.05,0.06,0.08,0.13,0.08,0.21v0.28
		c0.41-0.23,0.8-0.4,1.15-0.52c0.35-0.11,0.75-0.17,1.2-0.17c0.9,0,1.55,0.27,1.96,0.81c0.41,0.54,0.61,1.31,0.61,2.3V44.32z"/>
	<path class="st0" d="M73.48,44.4c0,0.14-0.09,0.22-0.27,0.25c-0.15,0.02-0.31,0.04-0.49,0.05c-0.18,0.01-0.34,0.02-0.47,0.02
		c-0.34,0-0.64-0.03-0.89-0.08c-0.25-0.06-0.46-0.16-0.62-0.31c-0.16-0.15-0.29-0.35-0.37-0.61c-0.08-0.26-0.13-0.59-0.13-1v-5.22
		l-1.43-0.16c-0.19-0.02-0.28-0.11-0.28-0.27v-0.4c0-0.18,0.09-0.27,0.28-0.27h1.43v-1.47c0-0.17,0.09-0.27,0.27-0.3l0.77-0.12h0.04
		c0.06,0,0.11,0.02,0.16,0.07c0.04,0.04,0.07,0.11,0.07,0.19v1.63h1.6c0.08,0,0.15,0.03,0.21,0.09c0.06,0.06,0.09,0.13,0.09,0.21
		v0.51c0,0.08-0.03,0.15-0.09,0.21c-0.06,0.06-0.13,0.09-0.21,0.09h-1.6v5.22c0,0.41,0.06,0.67,0.18,0.78
		c0.12,0.11,0.33,0.16,0.62,0.16h0.83c0.21,0,0.31,0.07,0.31,0.21V44.4z"/>
	<path class="st0" d="M79.8,39.79c0-0.85-0.16-1.45-0.48-1.81c-0.32-0.36-0.81-0.54-1.46-0.54c-0.64,0-1.13,0.19-1.47,0.57
		c-0.34,0.38-0.51,0.97-0.51,1.78v0.13h3.92V39.79z M81.12,40.6c0,0.22-0.09,0.33-0.28,0.33h-4.95v0.21c0,0.89,0.17,1.52,0.52,1.88
		c0.34,0.37,0.86,0.55,1.54,0.55c0.43,0,0.89-0.01,1.38-0.05c0.49-0.03,0.9-0.07,1.25-0.12h0.07c0.06,0,0.11,0.01,0.16,0.04
		c0.05,0.03,0.07,0.08,0.07,0.16v0.51c0,0.1-0.02,0.18-0.06,0.23c-0.04,0.06-0.12,0.09-0.24,0.11c-0.42,0.08-0.84,0.14-1.26,0.19
		c-0.42,0.04-0.88,0.07-1.38,0.07c-0.42,0-0.84-0.06-1.24-0.17c-0.4-0.11-0.76-0.31-1.07-0.58c-0.31-0.27-0.56-0.64-0.75-1.1
		c-0.19-0.46-0.29-1.04-0.29-1.73v-1.35c0-1.08,0.28-1.93,0.84-2.56c0.56-0.63,1.37-0.94,2.44-0.94c0.54,0,1.01,0.08,1.42,0.25
		c0.4,0.17,0.74,0.4,1.01,0.7s0.48,0.67,0.61,1.11c0.14,0.43,0.21,0.91,0.21,1.44V40.6z"/>
	<path class="st0" d="M86.54,37.18c0,0.17-0.1,0.25-0.31,0.25c-0.35,0-0.68,0.05-1,0.14c-0.32,0.09-0.67,0.26-1.04,0.49v6.26
		c0,0.08-0.03,0.15-0.09,0.21c-0.06,0.06-0.13,0.09-0.21,0.09h-0.72c-0.08,0-0.15-0.03-0.2-0.09c-0.05-0.06-0.08-0.13-0.08-0.21
		V36.7c0-0.08,0.03-0.15,0.08-0.21c0.05-0.06,0.12-0.09,0.2-0.09h0.69c0.08,0,0.15,0.03,0.2,0.09c0.05,0.06,0.08,0.13,0.08,0.21
		v0.31c0.37-0.26,0.73-0.44,1.07-0.55c0.34-0.11,0.68-0.16,1.01-0.16c0.21,0,0.31,0.09,0.31,0.27V37.18z"/>
	<path class="st0" d="M92.26,44.4c0,0.14-0.09,0.22-0.27,0.25c-0.15,0.02-0.31,0.04-0.49,0.05c-0.18,0.01-0.33,0.02-0.47,0.02
		c-0.34,0-0.64-0.03-0.89-0.08c-0.25-0.06-0.46-0.16-0.62-0.31c-0.16-0.15-0.29-0.35-0.37-0.61c-0.08-0.26-0.13-0.59-0.13-1v-5.22
		l-1.43-0.16c-0.19-0.02-0.28-0.11-0.28-0.27v-0.4c0-0.18,0.09-0.27,0.28-0.27h1.43v-1.47c0-0.17,0.09-0.27,0.27-0.3l0.77-0.12h0.04
		c0.06,0,0.11,0.02,0.15,0.07c0.04,0.04,0.07,0.11,0.07,0.19v1.63h1.6c0.08,0,0.15,0.03,0.21,0.09c0.06,0.06,0.09,0.13,0.09,0.21
		v0.51c0,0.08-0.03,0.15-0.09,0.21c-0.06,0.06-0.13,0.09-0.21,0.09h-1.6v5.22c0,0.41,0.06,0.67,0.18,0.78
		c0.12,0.11,0.33,0.16,0.62,0.16h0.83c0.21,0,0.31,0.07,0.31,0.21V44.4z"/>
	<path class="st0" d="M97.99,40.65H96.9c-0.44,0-0.81,0.03-1.11,0.08c-0.3,0.06-0.53,0.14-0.69,0.25c-0.17,0.11-0.29,0.26-0.36,0.45
		c-0.07,0.19-0.1,0.41-0.1,0.68v0.18c0,0.54,0.12,0.9,0.36,1.08c0.24,0.18,0.57,0.28,1,0.28c0.35,0,0.67-0.05,0.99-0.15
		c0.32-0.1,0.65-0.25,1.01-0.45V40.65z M99.29,44.32c0,0.08-0.03,0.15-0.09,0.21c-0.06,0.06-0.13,0.09-0.21,0.09h-0.68
		c-0.08,0-0.15-0.03-0.21-0.09c-0.06-0.06-0.09-0.13-0.09-0.21v-0.33c-0.36,0.21-0.72,0.38-1.09,0.52
		c-0.37,0.14-0.77,0.21-1.18,0.21c-0.32,0-0.62-0.04-0.91-0.11c-0.29-0.07-0.55-0.21-0.77-0.4c-0.22-0.19-0.4-0.44-0.53-0.75
		c-0.13-0.31-0.2-0.7-0.2-1.17v-0.18c0-0.4,0.06-0.75,0.18-1.05c0.12-0.3,0.33-0.56,0.61-0.76c0.28-0.2,0.65-0.36,1.1-0.46
		c0.45-0.1,1.01-0.15,1.67-0.15h1.09v-0.6c0-0.63-0.12-1.07-0.36-1.32c-0.24-0.25-0.65-0.37-1.23-0.37c-0.48,0-0.91,0.01-1.27,0.04
		c-0.36,0.03-0.69,0.05-0.99,0.08h-0.07c-0.07,0-0.13-0.02-0.19-0.05c-0.05-0.03-0.08-0.09-0.08-0.19v-0.52
		c0-0.16,0.1-0.25,0.31-0.28c0.31-0.05,0.64-0.09,1-0.13c0.36-0.04,0.79-0.06,1.29-0.06c1.02,0,1.76,0.25,2.21,0.75
		c0.45,0.5,0.67,1.19,0.67,2.06V44.32z"/>
	<path class="st0" d="M102.77,44.32c0,0.08-0.03,0.15-0.09,0.21c-0.06,0.06-0.13,0.09-0.21,0.09h-0.71c-0.08,0-0.15-0.03-0.21-0.09
		c-0.06-0.06-0.09-0.13-0.09-0.21V36.7c0-0.08,0.03-0.15,0.09-0.21c0.06-0.06,0.13-0.09,0.21-0.09h0.71c0.08,0,0.15,0.03,0.21,0.09
		c0.06,0.06,0.09,0.13,0.09,0.21V44.32z M102.8,34.79c0,0.08-0.03,0.15-0.09,0.21c-0.06,0.06-0.13,0.09-0.21,0.09h-0.75
		c-0.08,0-0.15-0.03-0.21-0.09c-0.06-0.06-0.09-0.13-0.09-0.21v-1.2c0-0.08,0.03-0.15,0.09-0.21c0.06-0.06,0.13-0.09,0.21-0.09h0.75
		c0.08,0,0.15,0.03,0.21,0.09c0.06,0.06,0.09,0.13,0.09,0.21V34.79z"/>
	<path class="st0" d="M111.18,44.32c0,0.08-0.03,0.15-0.09,0.21c-0.06,0.06-0.13,0.09-0.21,0.09h-0.71c-0.08,0-0.15-0.03-0.21-0.09
		c-0.06-0.06-0.09-0.13-0.09-0.21V39.4c0-0.38-0.03-0.69-0.1-0.95c-0.06-0.25-0.16-0.46-0.29-0.61c-0.13-0.15-0.3-0.26-0.51-0.32
		c-0.21-0.06-0.45-0.1-0.72-0.1c-0.32,0-0.64,0.06-0.98,0.17c-0.33,0.11-0.67,0.25-1.02,0.42v6.31c0,0.08-0.03,0.15-0.09,0.21
		c-0.06,0.06-0.13,0.09-0.21,0.09h-0.72c-0.08,0-0.14-0.03-0.2-0.09c-0.05-0.06-0.08-0.13-0.08-0.21V36.7
		c0-0.08,0.03-0.15,0.08-0.21c0.06-0.06,0.12-0.09,0.2-0.09h0.74c0.08,0,0.15,0.03,0.2,0.09c0.06,0.06,0.08,0.13,0.08,0.21v0.28
		c0.41-0.23,0.8-0.4,1.15-0.52c0.35-0.11,0.75-0.17,1.2-0.17c0.9,0,1.55,0.27,1.96,0.81c0.41,0.54,0.61,1.31,0.61,2.3V44.32z"/>
	<path class="st0" d="M122.97,44.32c0,0.08-0.03,0.15-0.09,0.21c-0.06,0.06-0.13,0.09-0.21,0.09h-0.71c-0.08,0-0.15-0.03-0.21-0.09
		c-0.06-0.06-0.09-0.13-0.09-0.21v-5.29c0-0.31-0.03-0.57-0.1-0.78c-0.07-0.21-0.16-0.37-0.28-0.49c-0.12-0.12-0.26-0.2-0.43-0.25
		c-0.17-0.05-0.34-0.08-0.53-0.08c-0.27,0-0.55,0.04-0.85,0.12c-0.3,0.08-0.59,0.17-0.88,0.28c0.09,0.33,0.13,0.72,0.13,1.17v5.32
		c0,0.08-0.02,0.15-0.07,0.21c-0.05,0.06-0.11,0.09-0.19,0.09h-0.78c-0.08,0-0.14-0.03-0.19-0.09c-0.04-0.06-0.07-0.13-0.07-0.21V39
		c0-0.33-0.02-0.59-0.07-0.8c-0.04-0.2-0.12-0.36-0.21-0.48c-0.1-0.11-0.22-0.19-0.36-0.23c-0.14-0.04-0.31-0.06-0.49-0.06
		c-0.27,0-0.55,0.06-0.86,0.17c-0.31,0.11-0.62,0.25-0.94,0.41v6.31c0,0.08-0.03,0.15-0.07,0.21c-0.05,0.06-0.11,0.09-0.19,0.09
		h-0.78c-0.08,0-0.14-0.03-0.19-0.09c-0.04-0.06-0.07-0.13-0.07-0.21V36.7c0-0.08,0.03-0.15,0.08-0.21c0.05-0.06,0.12-0.09,0.2-0.09
		h0.74c0.08,0,0.15,0.03,0.2,0.09c0.05,0.06,0.08,0.13,0.08,0.21v0.28c0.3-0.19,0.63-0.35,0.99-0.49c0.36-0.14,0.75-0.21,1.17-0.21
		c0.31,0,0.59,0.05,0.83,0.14c0.24,0.1,0.46,0.25,0.64,0.47c0.41-0.2,0.83-0.35,1.25-0.46c0.42-0.11,0.82-0.16,1.2-0.16
		c0.33,0,0.65,0.04,0.94,0.13c0.29,0.09,0.54,0.24,0.76,0.46c0.22,0.21,0.39,0.5,0.51,0.85c0.12,0.35,0.19,0.79,0.19,1.31V44.32z"/>
	<path class="st0" d="M129.93,39.79c0-0.85-0.16-1.45-0.48-1.81c-0.32-0.36-0.8-0.54-1.46-0.54c-0.64,0-1.13,0.19-1.47,0.57
		c-0.34,0.38-0.51,0.97-0.51,1.78v0.13h3.92V39.79z M131.24,40.6c0,0.22-0.09,0.33-0.28,0.33h-4.95v0.21c0,0.89,0.17,1.52,0.52,1.88
		c0.35,0.37,0.86,0.55,1.54,0.55c0.43,0,0.89-0.01,1.38-0.05c0.49-0.03,0.9-0.07,1.25-0.12h0.07c0.06,0,0.11,0.01,0.16,0.04
		c0.05,0.03,0.07,0.08,0.07,0.16v0.51c0,0.1-0.02,0.18-0.06,0.23c-0.04,0.06-0.12,0.09-0.24,0.11c-0.42,0.08-0.84,0.14-1.26,0.19
		c-0.42,0.04-0.88,0.07-1.38,0.07c-0.42,0-0.84-0.06-1.24-0.17c-0.4-0.11-0.76-0.31-1.07-0.58c-0.31-0.27-0.56-0.64-0.75-1.1
		c-0.19-0.46-0.29-1.04-0.29-1.73v-1.35c0-1.08,0.28-1.93,0.84-2.56c0.56-0.63,1.37-0.94,2.44-0.94c0.54,0,1.02,0.08,1.42,0.25
		c0.4,0.17,0.74,0.4,1.01,0.7c0.27,0.3,0.47,0.67,0.61,1.11c0.14,0.43,0.21,0.91,0.21,1.44V40.6z"/>
	<path class="st0" d="M139.24,44.32c0,0.08-0.03,0.15-0.09,0.21c-0.06,0.06-0.13,0.09-0.21,0.09h-0.71c-0.08,0-0.15-0.03-0.21-0.09
		c-0.06-0.06-0.09-0.13-0.09-0.21V39.4c0-0.38-0.03-0.69-0.1-0.95c-0.06-0.25-0.16-0.46-0.3-0.61c-0.13-0.15-0.3-0.26-0.51-0.32
		c-0.21-0.06-0.45-0.1-0.72-0.1c-0.32,0-0.64,0.06-0.98,0.17c-0.33,0.11-0.68,0.25-1.02,0.42v6.31c0,0.08-0.03,0.15-0.09,0.21
		c-0.06,0.06-0.13,0.09-0.21,0.09h-0.72c-0.08,0-0.14-0.03-0.2-0.09c-0.05-0.06-0.08-0.13-0.08-0.21V36.7
		c0-0.08,0.03-0.15,0.08-0.21c0.06-0.06,0.12-0.09,0.2-0.09h0.74c0.08,0,0.15,0.03,0.2,0.09c0.05,0.06,0.08,0.13,0.08,0.21v0.28
		c0.41-0.23,0.8-0.4,1.15-0.52c0.35-0.11,0.75-0.17,1.2-0.17c0.9,0,1.55,0.27,1.96,0.81c0.41,0.54,0.61,1.31,0.61,2.3V44.32z"/>
	<path class="st0" d="M145.27,44.4c0,0.14-0.09,0.22-0.27,0.25c-0.15,0.02-0.31,0.04-0.49,0.05c-0.18,0.01-0.33,0.02-0.47,0.02
		c-0.34,0-0.64-0.03-0.89-0.08c-0.25-0.06-0.46-0.16-0.62-0.31c-0.16-0.15-0.29-0.35-0.37-0.61c-0.08-0.26-0.12-0.59-0.12-1v-5.22
		l-1.43-0.16c-0.19-0.02-0.28-0.11-0.28-0.27v-0.4c0-0.18,0.09-0.27,0.28-0.27h1.43v-1.47c0-0.17,0.09-0.27,0.27-0.3l0.77-0.12h0.04
		c0.06,0,0.11,0.02,0.16,0.07c0.04,0.04,0.07,0.11,0.07,0.19v1.63h1.6c0.08,0,0.15,0.03,0.21,0.09c0.06,0.06,0.09,0.13,0.09,0.21
		v0.51c0,0.08-0.03,0.15-0.09,0.21c-0.06,0.06-0.13,0.09-0.21,0.09h-1.6v5.22c0,0.41,0.06,0.67,0.18,0.78
		c0.12,0.11,0.33,0.16,0.62,0.16h0.83c0.21,0,0.31,0.07,0.31,0.21V44.4z"/>
	<path class="st0" d="M154.25,34.86c-0.05-0.18-0.14-0.27-0.28-0.27c-0.15,0-0.25,0.09-0.3,0.27l-1.35,4.92h3.27L154.25,34.86z
		 M158.21,44.38c0,0.16-0.08,0.24-0.25,0.24h-0.87c-0.07,0-0.12-0.02-0.16-0.07c-0.04-0.04-0.07-0.1-0.09-0.16l-0.96-3.44h-3.83
		l-0.95,3.44c-0.02,0.06-0.06,0.11-0.1,0.16c-0.05,0.05-0.1,0.07-0.16,0.07h-0.87c-0.17,0-0.25-0.08-0.25-0.24
		c0-0.05,0-0.08,0.02-0.1l2.73-9.73c0.06-0.23,0.14-0.42,0.26-0.56c0.11-0.14,0.24-0.26,0.38-0.34c0.14-0.08,0.28-0.14,0.44-0.18
		c0.15-0.03,0.3-0.05,0.44-0.05c0.14,0,0.28,0.02,0.43,0.04c0.15,0.03,0.29,0.09,0.43,0.17c0.14,0.08,0.26,0.2,0.38,0.34
		c0.11,0.14,0.2,0.33,0.26,0.56l2.73,9.75C158.21,44.3,158.21,44.33,158.21,44.38"/>
	<path class="st0" d="M165.72,44.32c0,0.08-0.03,0.15-0.08,0.21c-0.05,0.06-0.12,0.09-0.2,0.09h-0.74c-0.08,0-0.14-0.03-0.2-0.09
		c-0.05-0.06-0.08-0.13-0.08-0.21v-0.28c-0.41,0.23-0.8,0.4-1.15,0.52c-0.36,0.11-0.75,0.17-1.2,0.17c-0.9,0-1.55-0.27-1.96-0.81
		c-0.41-0.54-0.61-1.31-0.61-2.3V36.7c0-0.08,0.03-0.15,0.09-0.21c0.06-0.06,0.13-0.09,0.21-0.09h0.71c0.08,0,0.15,0.03,0.21,0.09
		c0.06,0.06,0.09,0.13,0.09,0.21v4.92c0,0.38,0.03,0.7,0.1,0.95c0.06,0.25,0.16,0.46,0.3,0.61c0.13,0.15,0.3,0.26,0.5,0.32
		c0.2,0.06,0.45,0.1,0.73,0.1c0.31,0,0.64-0.05,0.97-0.16c0.33-0.11,0.67-0.25,1.02-0.42V36.7c0-0.08,0.03-0.15,0.09-0.21
		c0.06-0.06,0.13-0.09,0.21-0.09h0.72c0.08,0,0.15,0.03,0.2,0.09c0.06,0.06,0.08,0.13,0.08,0.21V44.32z"/>
	<path class="st0" d="M172.05,44.4c0,0.14-0.09,0.22-0.27,0.25c-0.15,0.02-0.31,0.04-0.49,0.05c-0.18,0.01-0.34,0.02-0.47,0.02
		c-0.34,0-0.64-0.03-0.89-0.08c-0.25-0.06-0.46-0.16-0.62-0.31c-0.16-0.15-0.29-0.35-0.37-0.61c-0.08-0.26-0.13-0.59-0.13-1v-5.22
		l-1.43-0.16c-0.19-0.02-0.28-0.11-0.28-0.27v-0.4c0-0.18,0.09-0.27,0.28-0.27h1.43v-1.47c0-0.17,0.09-0.27,0.27-0.3l0.77-0.12h0.04
		c0.06,0,0.11,0.02,0.15,0.07c0.04,0.04,0.07,0.11,0.07,0.19v1.63h1.6c0.08,0,0.15,0.03,0.21,0.09c0.06,0.06,0.09,0.13,0.09,0.21
		v0.51c0,0.08-0.03,0.15-0.09,0.21c-0.06,0.06-0.13,0.09-0.21,0.09h-1.6v5.22c0,0.41,0.06,0.67,0.18,0.78
		c0.12,0.11,0.33,0.16,0.62,0.16h0.83c0.21,0,0.31,0.07,0.31,0.21V44.4z"/>
	<path class="st0" d="M179.64,44.32c0,0.08-0.03,0.15-0.09,0.21c-0.06,0.06-0.13,0.09-0.21,0.09h-0.71c-0.08,0-0.15-0.03-0.21-0.09
		c-0.06-0.06-0.09-0.13-0.09-0.21V39.4c0-0.75-0.14-1.26-0.43-1.54c-0.28-0.28-0.67-0.42-1.15-0.42c-0.12,0-0.26,0.01-0.42,0.02
		c-0.16,0.01-0.34,0.04-0.52,0.07c-0.19,0.03-0.38,0.08-0.57,0.13c-0.19,0.06-0.37,0.12-0.52,0.19v6.46c0,0.08-0.03,0.15-0.09,0.21
		c-0.06,0.06-0.13,0.09-0.21,0.09h-0.72c-0.08,0-0.14-0.03-0.2-0.09c-0.05-0.06-0.08-0.13-0.08-0.21V33.68
		c0-0.08,0.03-0.15,0.08-0.21c0.05-0.06,0.12-0.09,0.2-0.09h0.74c0.08,0,0.15,0.03,0.2,0.09c0.05,0.06,0.08,0.13,0.08,0.21v3.08
		c0.35-0.16,0.74-0.28,1.16-0.35c0.42-0.07,0.78-0.11,1.1-0.11c0.39,0,0.75,0.06,1.08,0.18c0.33,0.12,0.61,0.3,0.84,0.55
		c0.24,0.25,0.42,0.57,0.55,0.96c0.13,0.39,0.19,0.86,0.19,1.41V44.32z"/>
	<path class="st0" d="M186.66,39.94c0-0.77-0.16-1.37-0.47-1.82c-0.32-0.45-0.82-0.67-1.52-0.67c-0.69,0-1.19,0.22-1.51,0.67
		c-0.31,0.44-0.47,1.05-0.47,1.83v1.14c0,0.77,0.16,1.37,0.47,1.82c0.31,0.45,0.81,0.67,1.51,0.67c0.69,0,1.19-0.22,1.51-0.67
		c0.32-0.44,0.48-1.05,0.48-1.83V39.94z M187.96,41.08c0,0.55-0.07,1.05-0.21,1.5c-0.14,0.45-0.35,0.83-0.62,1.15
		c-0.28,0.32-0.62,0.57-1.03,0.74c-0.41,0.17-0.89,0.26-1.43,0.26c-0.54,0-1.02-0.09-1.43-0.26c-0.41-0.17-0.75-0.42-1.03-0.74
		c-0.28-0.32-0.48-0.7-0.62-1.15c-0.14-0.45-0.21-0.95-0.21-1.5v-1.14c0-0.55,0.07-1.05,0.21-1.49c0.14-0.45,0.34-0.83,0.62-1.15
		c0.28-0.32,0.62-0.56,1.03-0.74c0.41-0.17,0.88-0.26,1.43-0.26c0.54,0,1.02,0.09,1.43,0.26c0.41,0.17,0.76,0.42,1.03,0.74
		c0.28,0.32,0.48,0.7,0.62,1.15c0.14,0.45,0.21,0.95,0.21,1.49V41.08z"/>
	<path class="st0" d="M193.36,37.18c0,0.17-0.1,0.25-0.31,0.25c-0.35,0-0.68,0.05-1,0.14c-0.32,0.09-0.67,0.26-1.04,0.49v6.26
		c0,0.08-0.03,0.15-0.09,0.21c-0.06,0.06-0.13,0.09-0.21,0.09h-0.72c-0.08,0-0.15-0.03-0.2-0.09c-0.05-0.06-0.08-0.13-0.08-0.21
		V36.7c0-0.08,0.03-0.15,0.08-0.21c0.05-0.06,0.12-0.09,0.2-0.09h0.69c0.08,0,0.14,0.03,0.2,0.09c0.05,0.06,0.08,0.13,0.08,0.21
		v0.31c0.37-0.26,0.73-0.44,1.07-0.55c0.34-0.11,0.68-0.16,1.01-0.16c0.21,0,0.31,0.09,0.31,0.27V37.18z"/>
	<path class="st0" d="M196.22,44.32c0,0.08-0.03,0.15-0.09,0.21c-0.06,0.06-0.13,0.09-0.21,0.09h-0.71c-0.08,0-0.15-0.03-0.21-0.09
		c-0.06-0.06-0.09-0.13-0.09-0.21V36.7c0-0.08,0.03-0.15,0.09-0.21c0.06-0.06,0.13-0.09,0.21-0.09h0.71c0.08,0,0.15,0.03,0.21,0.09
		c0.06,0.06,0.09,0.13,0.09,0.21V44.32z M196.25,34.79c0,0.08-0.03,0.15-0.09,0.21c-0.06,0.06-0.13,0.09-0.21,0.09h-0.75
		c-0.08,0-0.15-0.03-0.21-0.09c-0.06-0.06-0.09-0.13-0.09-0.21v-1.2c0-0.08,0.03-0.15,0.09-0.21c0.06-0.06,0.13-0.09,0.21-0.09h0.75
		c0.08,0,0.15,0.03,0.21,0.09c0.06,0.06,0.09,0.13,0.09,0.21V34.79z"/>
	<path class="st0" d="M202.73,44.4c0,0.14-0.09,0.22-0.27,0.25c-0.15,0.02-0.31,0.04-0.49,0.05c-0.18,0.01-0.33,0.02-0.47,0.02
		c-0.34,0-0.64-0.03-0.89-0.08c-0.25-0.06-0.46-0.16-0.62-0.31c-0.16-0.15-0.29-0.35-0.37-0.61c-0.08-0.26-0.13-0.59-0.13-1v-5.22
		l-1.43-0.16c-0.19-0.02-0.28-0.11-0.28-0.27v-0.4c0-0.18,0.09-0.27,0.28-0.27h1.43v-1.47c0-0.17,0.09-0.27,0.27-0.3l0.77-0.12h0.04
		c0.06,0,0.11,0.02,0.15,0.07c0.05,0.04,0.07,0.11,0.07,0.19v1.63h1.6c0.08,0,0.15,0.03,0.21,0.09c0.06,0.06,0.09,0.13,0.09,0.21
		v0.51c0,0.08-0.03,0.15-0.09,0.21c-0.06,0.06-0.13,0.09-0.21,0.09h-1.6v5.22c0,0.41,0.06,0.67,0.18,0.78
		c0.12,0.11,0.33,0.16,0.62,0.16h0.83c0.21,0,0.31,0.07,0.31,0.21V44.4z"/>
	<path class="st0" d="M210.41,36.65c0,0.05-0.01,0.08-0.02,0.1l-2.44,8.61c-0.12,0.41-0.24,0.75-0.38,1.03
		c-0.13,0.28-0.3,0.51-0.51,0.68c-0.21,0.17-0.46,0.3-0.75,0.38c-0.29,0.08-0.65,0.12-1.07,0.12c-0.21,0-0.43-0.01-0.66-0.04
		c-0.23-0.02-0.43-0.06-0.58-0.1c-0.09-0.02-0.16-0.04-0.22-0.07c-0.06-0.03-0.09-0.08-0.09-0.17v-0.55c0-0.16,0.09-0.24,0.28-0.24
		h0.04c0.17,0.02,0.39,0.04,0.66,0.06c0.27,0.02,0.49,0.03,0.66,0.03c0.21,0,0.39-0.02,0.55-0.05c0.16-0.03,0.29-0.1,0.41-0.19
		c0.11-0.09,0.21-0.22,0.3-0.39c0.08-0.17,0.16-0.38,0.21-0.64l0.15-0.61h-0.21c-0.11,0-0.22-0.01-0.32-0.03
		c-0.1-0.02-0.2-0.06-0.3-0.13c-0.09-0.07-0.18-0.17-0.26-0.31c-0.08-0.14-0.15-0.32-0.22-0.55l-1.97-6.83
		c-0.01-0.02-0.01-0.06-0.01-0.1c0-0.17,0.09-0.25,0.27-0.25h0.81c0.06,0,0.11,0.03,0.15,0.08c0.04,0.05,0.08,0.1,0.1,0.16
		l1.74,6.49c0.04,0.15,0.08,0.24,0.13,0.28c0.05,0.03,0.1,0.05,0.15,0.05h0.24l1.8-6.83c0.02-0.06,0.05-0.11,0.1-0.16
		c0.05-0.05,0.11-0.07,0.18-0.07h0.83C210.33,36.4,210.41,36.48,210.41,36.65"/>
	<g>
		<path class="st0" d="M25.3,25.47h-0.81c-0.13,0-0.24,0.04-0.34,0.13c-0.1,0.08-0.16,0.2-0.16,0.34v1.14
			c0,0.11,0.05,0.21,0.16,0.31c0.1,0.09,0.22,0.14,0.34,0.14h0.81c0.13,0,0.24-0.05,0.33-0.14c0.1-0.09,0.15-0.19,0.15-0.31v-1.14
			c0-0.14-0.05-0.25-0.15-0.34C25.53,25.52,25.42,25.47,25.3,25.47z"/>
		<path class="st0" d="M21.88,25.47h-0.81c-0.14,0-0.25,0.04-0.34,0.13c-0.09,0.08-0.14,0.2-0.14,0.34v1.14
			c0,0.11,0.05,0.21,0.14,0.31c0.09,0.09,0.2,0.14,0.34,0.14h0.81c0.13,0,0.24-0.05,0.33-0.14c0.1-0.09,0.15-0.19,0.15-0.31v-1.14
			c0-0.14-0.05-0.25-0.14-0.34C22.13,25.52,22.02,25.47,21.88,25.47z"/>
		<path class="st0" d="M31.8,11.39h0.9c0.14,0,0.25-0.04,0.34-0.13c0.09-0.08,0.14-0.19,0.14-0.32V9.8c0-0.14-0.05-0.25-0.14-0.34
			c-0.09-0.08-0.2-0.13-0.32-0.13H31.8c-0.12,0-0.24,0.04-0.33,0.13c-0.1,0.08-0.15,0.2-0.15,0.34v1.14c0,0.13,0.04,0.23,0.14,0.32
			C31.55,11.34,31.66,11.39,31.8,11.39z"/>
		<path class="st0" d="M35.7,14.02c-0.38-0.11-0.84-0.19-1.4-0.24c-0.56-0.05-1.13-0.07-1.71-0.07c-1.5,0-2.68,0.4-3.53,1.2
			c-0.86,0.8-1.28,1.91-1.28,3.33v0.51c0,0.72,0.09,1.32,0.26,1.79c0.17,0.48,0.39,0.86,0.66,1.16h-2.42h-0.12h-0.17
			c-0.12,0-0.27-0.01-0.44-0.02c-0.17-0.01-0.33-0.04-0.49-0.07c-0.16-0.04-0.31-0.08-0.44-0.15c-0.13-0.06-0.22-0.15-0.26-0.26
			v-5.8c0-0.11-0.04-0.21-0.11-0.28c-0.08-0.08-0.17-0.12-0.28-0.12H23c-0.11,0-0.2,0.04-0.28,0.12c-0.08,0.08-0.11,0.17-0.11,0.28
			v5.53c0,0.18-0.05,0.33-0.16,0.43c-0.1,0.11-0.23,0.18-0.39,0.23c-0.15,0.05-0.31,0.08-0.48,0.1c-0.17,0.01-0.32,0.02-0.46,0.02
			h-0.94c0,0,0,0,0,0h-4.35h-0.13h-4.36v0h-0.48c-0.44,0-0.8-0.08-1.06-0.24c-0.26-0.16-0.4-0.52-0.4-1.09v-5.93
			c0-0.11-0.02-0.2-0.05-0.26c-0.03-0.06-0.12-0.11-0.26-0.14C8.95,14,8.76,13.96,8.56,13.93c-0.21-0.03-0.43-0.07-0.66-0.09
			c-0.23-0.03-0.46-0.05-0.7-0.06c-0.24-0.01-0.44-0.02-0.62-0.02c-0.79,0-1.52,0.09-2.18,0.26c-0.66,0.18-1.23,0.45-1.71,0.82
			c-0.48,0.37-0.85,0.85-1.12,1.44c-0.26,0.59-0.4,1.3-0.4,2.13v0.55c0,1.36,0.35,2.4,1.04,3.12c0.69,0.72,1.69,1.08,2.98,1.08h0.19
			c0.58,0,1.12-0.07,1.61-0.2c0.49-0.13,0.86-0.36,1.1-0.66c0.22,0.45,0.54,0.77,0.97,0.95c0.42,0.18,0.95,0.27,1.57,0.27h0.58
			c0,0,0,0,0,0h4.48h0.13h4.36c0,0,0,0,0,0h0.69c0.39,0,0.82-0.05,1.3-0.14c0.48-0.09,0.89-0.28,1.24-0.56
			c0.32,0.28,0.73,0.47,1.22,0.56c0.49,0.09,0.96,0.14,1.39,0.14h0.12h0.12h5.9c0.56,0,1.1,0,1.64-0.01
			c0.53-0.01,1.09-0.04,1.68-0.09c0.29-0.03,0.44-0.16,0.46-0.4c0.01-0.21,0.03-0.44,0.04-0.7c0.01-0.25,0.02-0.52,0.03-0.79
			c0.01-0.28,0.01-0.55,0.01-0.81v-0.78V14.4c0-0.11-0.02-0.2-0.06-0.25C35.93,14.09,35.84,14.05,35.7,14.02z M7.66,20.29
			c0,0.22-0.06,0.41-0.17,0.56c-0.11,0.15-0.26,0.26-0.44,0.35c-0.18,0.08-0.38,0.14-0.6,0.17C6.23,21.39,6.01,21.4,5.8,21.4h-0.4
			c-0.9,0-1.54-0.24-1.92-0.71c-0.38-0.47-0.56-1.13-0.56-1.97v-0.44c0-0.56,0.09-1.03,0.26-1.4c0.17-0.37,0.41-0.67,0.71-0.89
			c0.3-0.22,0.66-0.37,1.07-0.45c0.42-0.08,0.88-0.13,1.38-0.13c0.18,0,0.37,0.01,0.58,0.02c0.21,0.01,0.45,0.04,0.73,0.06V20.29z
			 M34.28,21.68c-0.29,0.03-0.63,0.05-1,0.05c-0.37,0.01-0.72,0.01-1.04,0.01c-0.93,0-1.61-0.26-2.05-0.77
			c-0.44-0.51-0.66-1.26-0.66-2.23v-0.46c0-0.96,0.25-1.68,0.74-2.17c0.49-0.49,1.22-0.74,2.18-0.74c0.36,0,0.69,0.01,0.98,0.02
			c0.29,0.01,0.58,0.04,0.85,0.08V21.68z"/>
		<path class="st0" d="M49.21,12.25h0.81c0.13,0,0.24-0.04,0.33-0.13c0.1-0.08,0.15-0.19,0.15-0.32v-1.14
			c0-0.14-0.05-0.25-0.14-0.34c-0.09-0.08-0.21-0.13-0.34-0.13h-0.81c-0.14,0-0.25,0.04-0.34,0.13c-0.09,0.08-0.14,0.2-0.14,0.34
			v1.14c0,0.13,0.04,0.23,0.14,0.32C48.96,12.21,49.07,12.25,49.21,12.25z"/>
		<path class="st0" d="M52.63,12.25h0.81c0.13,0,0.24-0.04,0.33-0.13c0.1-0.08,0.15-0.19,0.15-0.32v-1.14
			c0-0.14-0.05-0.25-0.15-0.34c-0.1-0.08-0.21-0.13-0.33-0.13h-0.81c-0.13,0-0.24,0.04-0.34,0.13s-0.16,0.2-0.16,0.34v1.14
			c0,0.13,0.05,0.23,0.16,0.32C52.39,12.21,52.5,12.25,52.63,12.25z"/>
		<path class="st0" d="M64.22,7.67H63.2c-0.11,0-0.2,0.04-0.28,0.12c-0.08,0.08-0.11,0.17-0.11,0.28v12.86
			c0,0.37-0.05,0.58-0.16,0.65c-0.11,0.07-0.36,0.11-0.76,0.11h-1.54h-0.12h-0.17c-0.13,0-0.27-0.01-0.44-0.02
			c-0.17-0.01-0.33-0.04-0.49-0.07c-0.16-0.04-0.31-0.08-0.44-0.15c-0.13-0.06-0.22-0.15-0.26-0.26V8.08c0-0.11-0.03-0.21-0.1-0.28
			c-0.07-0.08-0.16-0.12-0.27-0.12h-1.02c-0.11,0-0.21,0.04-0.28,0.12c-0.08,0.08-0.12,0.17-0.12,0.28v12.84
			c0,0.18-0.05,0.33-0.16,0.43c-0.1,0.11-0.23,0.18-0.39,0.23c-0.15,0.05-0.31,0.08-0.48,0.1c-0.17,0.01-0.32,0.02-0.46,0.02h-0.98
			h-0.12h-0.17c-0.12,0-0.27-0.01-0.44-0.02c-0.17-0.01-0.33-0.04-0.49-0.07c-0.16-0.04-0.31-0.08-0.44-0.15
			c-0.13-0.06-0.22-0.15-0.26-0.26v-5.8c0-0.11-0.04-0.21-0.11-0.28c-0.08-0.08-0.17-0.12-0.28-0.12H50.9
			c-0.11,0-0.2,0.04-0.28,0.12c-0.08,0.08-0.11,0.17-0.11,0.28v5.53c0,0.18-0.05,0.33-0.16,0.43c-0.1,0.11-0.23,0.18-0.39,0.23
			c-0.15,0.05-0.31,0.08-0.48,0.1c-0.17,0.01-0.32,0.02-0.46,0.02h-0.94c0,0,0,0,0,0h-4.35v0h-1.92v-6.31c0-0.11-0.03-0.21-0.1-0.28
			c-0.07-0.08-0.15-0.12-0.25-0.12h-1.02c-0.11,0-0.2,0.04-0.27,0.12c-0.07,0.08-0.1,0.17-0.1,0.28v9.34c0,0.46-0.03,0.83-0.1,1.11
			c-0.07,0.27-0.19,0.48-0.38,0.62c-0.18,0.14-0.42,0.23-0.71,0.27c-0.29,0.04-0.67,0.06-1.13,0.06H37.3c-0.24,0-0.35,0.1-0.35,0.3
			v0.91c0,0.1,0.02,0.17,0.06,0.22c0.04,0.05,0.13,0.09,0.27,0.12c0.14,0.03,0.32,0.05,0.55,0.06c0.23,0.01,0.38,0.02,0.45,0.02
			c0.81,0,1.46-0.1,1.95-0.3c0.49-0.2,0.88-0.54,1.16-1.03c0.15-0.28,0.26-0.61,0.31-0.99c0.05-0.38,0.08-0.79,0.08-1.24v-1.35h1.81
			c0,0,0,0,0,0h4.48c0,0,0,0,0,0h0.69c0.39,0,0.82-0.05,1.3-0.14c0.48-0.09,0.89-0.28,1.24-0.56c0.32,0.28,0.73,0.47,1.22,0.56
			c0.49,0.09,0.96,0.14,1.39,0.14h0.13h0.12h0.79c0.39,0,0.82-0.05,1.3-0.14c0.48-0.09,0.89-0.28,1.24-0.56
			c0.15,0.14,0.34,0.26,0.55,0.35c0.22,0.09,0.44,0.16,0.67,0.21c0.23,0.05,0.46,0.08,0.7,0.11c0.24,0.02,0.46,0.03,0.67,0.03h0.12
			h0.12h0.98c0.24,0,0.49,0,0.76-0.01c0.27-0.01,0.53-0.02,0.78-0.04c0.25-0.02,0.48-0.04,0.69-0.06c0.21-0.02,0.37-0.05,0.48-0.1
			c0.17-0.07,0.28-0.15,0.33-0.25c0.05-0.1,0.1-0.22,0.12-0.36c0.03-0.17,0.05-0.36,0.06-0.57c0.01-0.21,0.03-0.43,0.03-0.65
			c0.01-0.22,0.01-0.44,0.01-0.65v-0.57V8.08c0-0.11-0.03-0.21-0.1-0.28C64.42,7.71,64.33,7.67,64.22,7.67z"/>
		<path class="st0" d="M75,11.43h0.81c0.13,0,0.24-0.04,0.33-0.13c0.1-0.08,0.15-0.19,0.15-0.32V9.85c0-0.14-0.04-0.25-0.14-0.34
			c-0.09-0.08-0.2-0.13-0.34-0.13H75c-0.14,0-0.25,0.04-0.34,0.13c-0.09,0.08-0.14,0.2-0.14,0.34v1.14c0,0.13,0.04,0.23,0.14,0.32
			C74.74,11.39,74.86,11.43,75,11.43z"/>
		<path class="st0" d="M78.42,11.43h0.81c0.13,0,0.24-0.04,0.33-0.13c0.1-0.08,0.15-0.19,0.15-0.32V9.85c0-0.14-0.05-0.25-0.15-0.34
			c-0.1-0.08-0.21-0.13-0.33-0.13h-0.81c-0.12,0-0.24,0.04-0.34,0.13c-0.1,0.08-0.16,0.2-0.16,0.34v1.14c0,0.13,0.05,0.23,0.16,0.32
			C78.18,11.39,78.29,11.43,78.42,11.43z"/>
		<path class="st0" d="M102.74,13.83c-1.39,0-2.46,0.39-3.2,1.16c-0.74,0.77-1.11,1.88-1.11,3.33v2.03c0,0.24-0.02,0.44-0.06,0.61
			c-0.04,0.17-0.12,0.3-0.24,0.39c-0.12,0.09-0.25,0.17-0.41,0.22c-0.15,0.06-0.3,0.09-0.46,0.11c-0.15,0.01-0.28,0.02-0.38,0.02
			h-0.67c0,0,0,0,0,0h-4.35h-0.13h-4.36h-0.12H82.9v0h-0.48c-0.44,0-0.8-0.08-1.06-0.24c-0.26-0.16-0.4-0.52-0.4-1.09v-5.93
			c0-0.11-0.02-0.2-0.05-0.26c-0.03-0.06-0.12-0.11-0.26-0.14c-0.15-0.04-0.33-0.08-0.54-0.12c-0.21-0.03-0.43-0.07-0.66-0.09
			c-0.23-0.03-0.46-0.05-0.7-0.06c-0.24-0.01-0.44-0.02-0.62-0.02c-0.79,0-1.52,0.09-2.18,0.26c-0.66,0.18-1.23,0.45-1.71,0.82
			c-0.48,0.37-0.85,0.85-1.12,1.44c-0.26,0.59-0.4,1.3-0.4,2.13v0.55c0,1.36,0.35,2.4,1.04,3.12c0.69,0.72,1.69,1.08,2.98,1.08h0.19
			c0.58,0,1.12-0.07,1.62-0.2c0.49-0.13,0.86-0.36,1.09-0.66c0.22,0.45,0.54,0.77,0.97,0.95c0.42,0.18,0.95,0.27,1.57,0.27h0.58l0,0
			h4.48h0.12h4.36h0.13h4.36c0,0,0,0,0,0h0.33c0.58,0,1.12-0.07,1.61-0.22c0.49-0.15,0.85-0.41,1.08-0.79
			c0.35,0.45,0.82,0.78,1.41,1c0.59,0.22,1.28,0.33,2.05,0.33c1.5,0,2.58-0.38,3.25-1.13c0.67-0.75,1-1.86,1-3.32V18.3
			c0-1.46-0.35-2.57-1.06-3.33C105.18,14.21,104.13,13.83,102.74,13.83z M79.21,20.29c0,0.22-0.06,0.41-0.17,0.56
			c-0.11,0.15-0.26,0.26-0.44,0.35c-0.18,0.08-0.38,0.14-0.6,0.17c-0.22,0.03-0.44,0.04-0.65,0.04h-0.4c-0.9,0-1.54-0.24-1.92-0.71
			c-0.38-0.47-0.56-1.13-0.56-1.97v-0.44c0-0.56,0.09-1.03,0.26-1.4c0.17-0.37,0.41-0.67,0.71-0.89c0.3-0.22,0.66-0.37,1.07-0.45
			c0.42-0.08,0.88-0.13,1.38-0.13c0.18,0,0.37,0.01,0.58,0.02c0.21,0.01,0.45,0.04,0.73,0.06V20.29z M105.2,19.27
			c0,1.04-0.19,1.78-0.56,2.22c-0.38,0.44-1.02,0.66-1.94,0.66c-0.65,0-1.19-0.11-1.61-0.33c-0.42-0.22-0.69-0.64-0.83-1.25
			c-0.06-0.32-0.08-0.71-0.08-1.16v-0.93c0-0.97,0.2-1.71,0.59-2.22c0.4-0.51,1.05-0.77,1.97-0.77c0.9,0,1.54,0.26,1.91,0.78
			c0.37,0.52,0.55,1.26,0.55,2.21V19.27z"/>
		<path class="st0" d="M134.12,7.67h-1.02c-0.11,0-0.21,0.04-0.28,0.12c-0.08,0.08-0.11,0.17-0.11,0.28v12.86
			c0,0.37-0.05,0.58-0.16,0.65c-0.1,0.07-0.36,0.11-0.76,0.11h-1.54h-0.13h-2.5c0.21-0.14,0.4-0.34,0.57-0.6
			c0.17-0.26,0.32-0.55,0.45-0.86c0.13-0.32,0.22-0.65,0.29-1c0.07-0.35,0.1-0.7,0.1-1.03v-0.4c0-0.72-0.11-1.33-0.34-1.86
			c-0.23-0.52-0.55-0.95-0.97-1.28c-0.42-0.33-0.91-0.57-1.49-0.73c-0.58-0.15-1.21-0.23-1.89-0.23c-0.42,0-0.83,0.03-1.25,0.11
			c-0.42,0.07-0.82,0.17-1.21,0.28c-0.39,0.12-0.75,0.27-1.07,0.44c-0.33,0.18-0.61,0.37-0.84,0.58c-0.22,0.18-0.34,0.37-0.35,0.55
			l-0.02,0.61c0,0.06,0,0.12,0.01,0.19c0.01,0.07,0.02,0.13,0.05,0.17l1.96,5.06h-3.36c0,0,0,0,0,0h-4.35v0h-0.52
			c-0.22,0-0.42-0.01-0.59-0.04c-0.17-0.03-0.32-0.08-0.44-0.17c-0.12-0.08-0.21-0.21-0.27-0.37c-0.06-0.16-0.09-0.38-0.09-0.66
			V8.08c0-0.11-0.03-0.21-0.1-0.3s-0.16-0.13-0.27-0.13h-1.02c-0.11,0-0.21,0.04-0.28,0.13c-0.08,0.08-0.12,0.18-0.12,0.3v12.78
			c0,0.53,0.06,0.97,0.18,1.31c0.12,0.34,0.29,0.61,0.53,0.81c0.24,0.2,0.52,0.34,0.86,0.42c0.33,0.08,0.72,0.12,1.17,0.12h0.85
			c0,0,0,0,0,0h4.48c0,0,0,0,0,0h11.86h0.13h0.98c0.24,0,0.49,0,0.76-0.01c0.27-0.01,0.53-0.02,0.78-0.04
			c0.25-0.02,0.48-0.04,0.69-0.06c0.21-0.02,0.37-0.05,0.48-0.1c0.17-0.07,0.28-0.15,0.33-0.25c0.05-0.1,0.1-0.22,0.13-0.36
			c0.03-0.17,0.05-0.36,0.06-0.57c0.01-0.21,0.02-0.43,0.03-0.65c0.01-0.22,0.01-0.44,0.01-0.65v-0.57V8.08
			c0-0.11-0.03-0.21-0.1-0.28C134.32,7.71,134.23,7.67,134.12,7.67z M127.3,18.24c0,0.86-0.21,1.61-0.61,2.26
			c-0.41,0.65-0.98,1.06-1.7,1.22h-1.54l-2.13-5.52c0.51-0.35,1.06-0.58,1.63-0.68c0.57-0.1,1.04-0.15,1.4-0.15
			c0.92,0,1.64,0.21,2.17,0.62c0.53,0.41,0.79,1.09,0.79,2.01V18.24z"/>
		<path class="st0" d="M139.46,7.65h-1.02c-0.11,0-0.21,0.04-0.28,0.13c-0.08,0.08-0.12,0.18-0.12,0.3v15.02
			c0,0.11,0.04,0.21,0.12,0.3c0.07,0.08,0.17,0.13,0.28,0.13h1.02c0.11,0,0.2-0.04,0.27-0.13c0.07-0.08,0.1-0.18,0.1-0.3V8.08
			c0-0.11-0.03-0.21-0.1-0.3C139.66,7.7,139.57,7.65,139.46,7.65z"/>
		<path class="st0" d="M153.86,11.43h0.81c0.13,0,0.24-0.04,0.33-0.13c0.1-0.08,0.15-0.19,0.15-0.32V9.85
			c0-0.14-0.05-0.25-0.15-0.34c-0.1-0.08-0.21-0.13-0.33-0.13h-0.81c-0.12,0-0.24,0.04-0.34,0.13c-0.1,0.08-0.16,0.2-0.16,0.34v1.14
			c0,0.13,0.05,0.23,0.16,0.32C153.62,11.39,153.74,11.43,153.86,11.43z"/>
		<path class="st0" d="M150.44,11.43h0.81c0.13,0,0.24-0.04,0.33-0.13c0.1-0.08,0.14-0.19,0.14-0.32V9.85
			c0-0.14-0.04-0.25-0.14-0.34c-0.09-0.08-0.2-0.13-0.34-0.13h-0.81c-0.14,0-0.25,0.04-0.34,0.13c-0.09,0.08-0.14,0.2-0.14,0.34
			v1.14c0,0.13,0.04,0.23,0.14,0.32C150.19,11.39,150.3,11.43,150.44,11.43z"/>
		<path class="st0" d="M168.87,12.38h2.81c0.11,0,0.2-0.01,0.26-0.04c0.06-0.03,0.09-0.1,0.09-0.21v-0.34
			c0-0.17-0.12-0.25-0.35-0.25h-1.4c-0.11-0.06-0.22-0.18-0.31-0.37c-0.1-0.19-0.15-0.43-0.15-0.73c0-0.63,0.37-0.95,1.11-0.95
			c0.07,0,0.19,0,0.35,0.01c0.17,0.01,0.26,0.01,0.29,0.01c0.18,0,0.27-0.08,0.27-0.23v-0.3c0-0.11-0.08-0.2-0.23-0.25
			c-0.14-0.03-0.28-0.05-0.42-0.06c-0.14-0.01-0.26-0.02-0.38-0.02c-0.63,0-1.11,0.14-1.45,0.41c-0.34,0.27-0.51,0.71-0.51,1.3
			c0,0.21,0.03,0.43,0.08,0.64c0.06,0.22,0.15,0.4,0.27,0.56h-0.35c-0.25,0-0.38,0.07-0.38,0.21v0.36
			C168.5,12.29,168.62,12.38,168.87,12.38z"/>
		<path class="st0" d="M182.74,25.47h-0.81c-0.13,0-0.24,0.04-0.34,0.13c-0.1,0.08-0.16,0.2-0.16,0.34v1.14
			c0,0.11,0.05,0.21,0.16,0.31c0.1,0.09,0.22,0.14,0.34,0.14h0.81c0.13,0,0.24-0.05,0.33-0.14c0.1-0.09,0.15-0.19,0.15-0.31v-1.14
			c0-0.14-0.05-0.25-0.15-0.34C182.97,25.52,182.86,25.47,182.74,25.47z"/>
		<path class="st0" d="M179.32,25.47h-0.81c-0.14,0-0.25,0.04-0.34,0.13c-0.09,0.08-0.14,0.2-0.14,0.34v1.14
			c0,0.11,0.05,0.21,0.14,0.31c0.09,0.09,0.21,0.14,0.34,0.14h0.81c0.13,0,0.24-0.05,0.33-0.14c0.1-0.09,0.15-0.19,0.15-0.31v-1.14
			c0-0.14-0.05-0.25-0.14-0.34C179.57,25.52,179.46,25.47,179.32,25.47z"/>
		<path class="st0" d="M204.19,7.67h-1.02c-0.11,0-0.21,0.04-0.28,0.12c-0.08,0.08-0.12,0.17-0.12,0.28v12.86
			c0,0.37-0.05,0.58-0.16,0.65c-0.1,0.07-0.36,0.11-0.76,0.11h-1.67c0,0,0,0,0,0h-0.75c-0.32,0-0.61,0.01-0.88,0.04
			c-0.26,0.03-0.49,0.09-0.69,0.19c-0.4,0.18-0.67,0.53-0.81,1.05c-0.01,0.04-0.03,0.12-0.04,0.23c-0.01,0.11-0.03,0.23-0.04,0.36
			l-0.02,0.34v0.25c-0.03,1.04-0.2,1.8-0.52,2.28c-0.32,0.48-0.93,0.72-1.83,0.72c-0.93,0-1.56-0.26-1.9-0.77
			c-0.33-0.51-0.5-1.3-0.5-2.35v-0.53c0.26,0,0.55,0,0.86-0.01c0.31-0.01,0.63-0.02,0.94-0.04c0.31-0.02,0.61-0.05,0.91-0.08
			c0.29-0.03,0.54-0.09,0.75-0.16c1.03-0.3,1.79-0.88,2.28-1.75c0.49-0.87,0.74-1.93,0.74-3.16v-0.32c0-1.48-0.43-2.54-1.28-3.21
			c-0.85-0.66-2.02-0.99-3.49-0.99c-0.54,0-1.06,0.02-1.56,0.06c-0.5,0.04-0.97,0.13-1.42,0.25c-0.32,0.08-0.48,0.27-0.48,0.55v7.04
			h-2.25h-0.13h-4.36v0h-0.29c-0.12,0-0.27-0.01-0.44-0.02c-0.17-0.01-0.33-0.04-0.49-0.07c-0.16-0.04-0.31-0.08-0.44-0.15
			c-0.13-0.06-0.22-0.15-0.26-0.26v-5.8c0-0.11-0.04-0.21-0.11-0.28c-0.08-0.08-0.17-0.12-0.28-0.12h-0.96
			c-0.11,0-0.2,0.04-0.28,0.12c-0.08,0.08-0.11,0.17-0.11,0.28v5.53c0,0.18-0.05,0.33-0.16,0.43c-0.1,0.11-0.23,0.18-0.39,0.23
			c-0.15,0.05-0.31,0.08-0.48,0.1c-0.17,0.01-0.32,0.02-0.46,0.02h-0.94c0,0,0,0,0,0h-4.35v0h-0.29c-0.13,0-0.27-0.01-0.44-0.02
			c-0.17-0.01-0.33-0.04-0.49-0.07c-0.16-0.04-0.31-0.08-0.44-0.15c-0.13-0.06-0.22-0.15-0.26-0.26v-5.8c0-0.11-0.04-0.21-0.11-0.28
			c-0.08-0.08-0.17-0.12-0.28-0.12H170c-0.11,0-0.2,0.04-0.28,0.12c-0.08,0.08-0.11,0.17-0.11,0.28v5.53c0,0.18-0.05,0.33-0.16,0.43
			c-0.1,0.11-0.23,0.18-0.39,0.23c-0.15,0.05-0.31,0.08-0.48,0.1c-0.17,0.01-0.32,0.02-0.46,0.02h-0.94c0,0,0,0,0,0h-4.35h-0.12
			h-4.36v0h-0.48c-0.44,0-0.8-0.08-1.06-0.24c-0.26-0.16-0.39-0.52-0.39-1.09v-5.93c0-0.11-0.02-0.2-0.05-0.26
			c-0.03-0.06-0.12-0.11-0.26-0.14c-0.15-0.04-0.33-0.08-0.54-0.12c-0.21-0.03-0.43-0.07-0.66-0.09c-0.23-0.03-0.46-0.05-0.7-0.06
			c-0.24-0.01-0.44-0.02-0.62-0.02c-0.79,0-1.52,0.09-2.18,0.26c-0.66,0.18-1.23,0.45-1.71,0.82c-0.48,0.37-0.85,0.85-1.12,1.44
			c-0.26,0.59-0.4,1.3-0.4,2.13v0.55c0,1.36,0.35,2.4,1.04,3.12c0.69,0.72,1.69,1.08,2.98,1.08h0.19c0.58,0,1.12-0.07,1.62-0.2
			c0.49-0.13,0.86-0.36,1.09-0.66c0.22,0.45,0.54,0.77,0.97,0.95c0.42,0.18,0.95,0.27,1.57,0.27h0.58l0,0h4.48h0.12h4.36
			c0,0,0,0,0,0h0.69c0.39,0,0.82-0.05,1.3-0.14c0.48-0.09,0.89-0.28,1.24-0.56c0.32,0.28,0.73,0.47,1.22,0.56
			c0.49,0.09,0.96,0.14,1.39,0.14h0.25v0h4.36c0,0,0,0,0,0h0.69c0.39,0,0.82-0.05,1.3-0.14c0.48-0.09,0.89-0.28,1.24-0.56
			c0.32,0.28,0.73,0.47,1.22,0.56c0.49,0.09,0.96,0.14,1.39,0.14h0.25v0h4.36h0.13h2.25v0.7c0,0.72,0.07,1.36,0.2,1.93
			c0.13,0.57,0.36,1.05,0.68,1.46c0.32,0.4,0.75,0.71,1.28,0.92c0.54,0.21,1.21,0.32,2.01,0.32c1.4,0,2.41-0.38,3.02-1.15
			c0.61-0.77,0.94-1.88,0.98-3.34l0.02-0.78c0.08-0.01,0.25-0.03,0.51-0.03c0.26-0.01,0.5-0.01,0.72-0.01h0.31c0,0,0,0,0,0h1.1
			c0.24,0,0.49,0,0.76-0.01c0.27-0.01,0.53-0.02,0.78-0.04c0.25-0.02,0.48-0.04,0.69-0.06c0.21-0.02,0.37-0.05,0.48-0.1
			c0.17-0.07,0.28-0.15,0.33-0.25c0.06-0.1,0.1-0.22,0.12-0.36c0.03-0.17,0.05-0.36,0.06-0.57c0.01-0.21,0.03-0.43,0.03-0.65
			c0.01-0.22,0.01-0.44,0.01-0.65v-0.57V8.08c0-0.11-0.04-0.21-0.11-0.28C204.39,7.71,204.3,7.67,204.19,7.67z M192.2,15.56
			c0.28-0.04,0.54-0.07,0.79-0.08c0.25-0.01,0.56-0.02,0.94-0.02c0.46,0,0.87,0.04,1.24,0.13c0.37,0.08,0.68,0.23,0.94,0.43
			c0.26,0.2,0.46,0.47,0.6,0.81c0.15,0.34,0.22,0.76,0.22,1.27v0.38c0,1.04-0.24,1.84-0.71,2.39c-0.47,0.56-1.26,0.83-2.36,0.83
			h-1.67V15.56z M154.66,20.29c0,0.22-0.06,0.41-0.17,0.56c-0.11,0.15-0.26,0.26-0.44,0.35c-0.18,0.08-0.38,0.14-0.6,0.17
			c-0.22,0.03-0.44,0.04-0.65,0.04h-0.4c-0.9,0-1.54-0.24-1.92-0.71c-0.37-0.47-0.56-1.13-0.56-1.97v-0.44
			c0-0.56,0.09-1.03,0.26-1.4c0.17-0.37,0.41-0.67,0.71-0.89c0.3-0.22,0.66-0.37,1.07-0.45c0.42-0.08,0.88-0.13,1.38-0.13
			c0.18,0,0.37,0.01,0.58,0.02c0.21,0.01,0.45,0.04,0.73,0.06V20.29z"/>
		<path class="st0" d="M209.8,7.78c-0.07-0.08-0.16-0.13-0.27-0.13h-1.02c-0.11,0-0.21,0.04-0.28,0.13
			c-0.08,0.08-0.12,0.18-0.12,0.3v15.02c0,0.11,0.04,0.21,0.12,0.3c0.08,0.08,0.17,0.13,0.28,0.13h1.02c0.11,0,0.2-0.04,0.27-0.13
			c0.07-0.08,0.11-0.18,0.11-0.3V8.08C209.9,7.96,209.87,7.86,209.8,7.78z"/>
	</g>
	<polygon class="st1" points="256.98,30.06 256.98,30.06 255.41,29.32 255.5,29.12 255.31,29.03 255.19,29.22 254.13,28.72 
		253.58,28.46 253.42,28.38 253.25,28.3 253.23,28.3 252.67,28.03 252.62,28.01 252.5,27.95 252.33,27.87 252.19,27.81 
		251.99,27.71 250.86,27.18 250.56,27.04 250.4,26.96 249.03,26.32 248.64,26.14 248.05,25.86 247.52,25.61 247.42,25.56 
		246.82,25.61 246.62,25.62 247.56,26.08 248.31,26.45 248.82,26.7 249.86,27.21 250.2,27.38 250.86,27.7 251.75,28.14 
		251.76,28.14 251.92,28.22 252.08,28.3 252.67,28.59 252.83,28.67 252.99,28.75 253,28.75 254.22,29.35 254.24,29.36 254.48,29.41 
		254.79,29.47 254.93,29.61 254.77,29.86 255.06,30.01 255.15,29.83 256.73,30.6 256.98,30.06 	"/>
	<polygon class="st1" points="253.22,19.02 253.87,18.42 254.13,17.82 254.2,17.63 254.13,17.62 253.98,17.6 253.7,17.56 
		253.05,19.03 253.07,19.16 	"/>
	<polygon class="st1" points="252.85,27.62 253.14,27.49 253.14,26.46 253.14,25.7 253.14,25.61 253.14,25.57 253.14,25.05 
		253.14,24.03 253.14,23.54 253.14,22.81 253.14,22.46 253.14,22.12 252.71,21.74 252.64,21.74 252.19,22.16 252.19,22.35 
		252.19,23.34 252.19,23.54 252.19,24.47 252.19,25.51 252.19,25.61 252.19,26 252.19,26.13 252.19,26.49 252.19,27.34 
		252.19,27.49 252.67,27.71 	"/>
	<polygon class="st1" points="250.23,23.61 250.31,23.54 250.86,23.02 251.3,22.6 251.79,22.15 252.19,21.76 252.19,21.75 
		251.76,21.75 251.01,21.77 250.86,21.77 250.67,21.77 249.69,22.68 249.26,23.08 249.15,23.54 248.84,24.88 248.83,24.94 
		248.87,24.89 	"/>
	<polygon class="st1" points="254.11,18.59 253.86,18.83 253.6,19.07 253.13,19.5 253.15,19.66 253.39,19.56 253.58,19.48 
		253.77,19.4 254.13,19.25 255.42,18.72 256.63,17.58 255.51,17.3 254.13,18.58 	"/>
	<polygon class="st1" points="255.2,19.12 254.83,19.28 254.13,19.57 253.61,19.78 253.42,19.86 253.23,19.94 253.12,19.99 
		253.19,20.04 253.25,20.09 253.32,20.09 253.48,20.09 253.97,20.08 254.13,20.08 254.18,20.08 254.4,20.08 255.7,20.06 
		255.89,20.06 256.5,19.82 258.05,19.21 257.18,18.68 257.13,18.65 256.8,18.45 255.58,18.96 	"/>
	<polygon class="st1" points="252.25,19.23 252.28,19.02 251.69,17.7 251.19,17.78 251.55,18.63 	"/>
	<polygon class="st1" points="257.51,20.32 256.22,20.34 255.94,20.34 255.53,20.35 255.39,20.35 255.12,20.36 254.13,20.37 
		254.09,20.37 253.87,20.37 253.66,20.38 253.58,20.38 253.62,20.41 253.73,20.51 253.84,20.6 254.04,20.77 254.13,20.85 
		254.17,20.88 254.29,20.99 254.51,21.18 254.79,21.42 255.65,21.41 257.17,21.38 258.59,21.36 257.9,20.7 	"/>
	<polygon class="st1" points="250.44,21.49 250.56,21.48 250.77,21.48 250.86,21.48 250.99,21.48 251.91,21.46 251.27,21.22 
		251.12,21.16 250.96,21.11 250.86,21.07 249.2,20.44 248.41,20.45 248.35,20.45 248.05,20.46 246.83,21.54 249.02,21.51 	"/>
	<polygon class="st1" points="249.25,20.15 249.62,20.29 249.99,20.43 250.86,20.76 251.2,20.89 251.35,20.94 251.5,21 
		252.05,21.21 252.15,21.25 252.07,21.17 251.68,20.84 251.57,20.74 251.46,20.65 251.2,20.41 251.04,20.27 250.87,20.13 
		250.86,20.11 249.83,19.21 248.02,18.45 247.45,18.8 246.77,19.21 247.95,19.66 	"/>
	<polygon class="st1" points="252.61,18.77 252.58,18.98 252.54,19.24 252.5,19.45 252.53,19.47 252.63,19.57 252.64,19.57 
		252.71,19.63 252.74,19.66 252.75,19.67 252.76,19.67 252.86,19.67 252.85,19.58 252.84,19.57 252.83,19.5 252.82,19.4 
		252.79,19.25 252.75,18.99 252.71,18.77 	"/>
	<polygon class="st1" points="250.32,19.26 250.66,19.56 250.86,19.73 251.3,20.12 251.47,20.26 251.63,20.41 251.68,20.45 
		251.79,20.54 251.9,20.64 252.19,20.9 252.2,20.91 252.21,20.91 252.39,21.08 252.4,21.07 252.4,21.08 252.47,21.14 252.52,21.19 
		252.64,21.29 252.67,21.31 252.72,21.36 252.73,21.37 252.77,21.41 252.78,21.42 252.82,21.45 252.88,21.51 252.91,21.53 
		252.98,21.59 253.14,21.73 253.14,21.73 253.54,22.08 254.13,22.6 254.73,23.13 254.86,23.24 255.03,23.39 255.2,23.54 
		255.95,24.19 256.49,24.67 256.65,24.81 256.6,24.63 256.56,24.5 256.3,23.54 256.15,22.96 255.9,22.75 255.8,22.67 255.24,22.18 
		254.69,21.71 254.52,21.57 254.36,21.43 254.3,21.37 254.13,21.23 253.99,21.11 253.86,21 253.74,20.89 253.63,20.8 253.52,20.71 
		253.41,20.61 253.3,20.52 253.19,20.42 253.14,20.38 253.07,20.32 252.98,20.24 252.92,20.19 252.83,20.11 252.83,20.11 
		252.81,20.1 252.81,20.1 252.7,20 252.7,20 252.7,20 252.65,19.96 252.64,19.95 252.58,19.9 252.53,19.86 252.53,19.86 
		252.53,19.85 252.48,19.81 252.42,19.76 252.41,19.75 252.32,19.68 252.19,19.57 251.8,19.23 251.55,19.02 251.31,18.81 
		251.2,18.71 250.86,18.42 249.69,17.42 248.59,17.74 249.98,18.96 	"/>
	<polygon class="st1" points="251.75,28.46 251.54,28.56 250.86,28.88 250.15,29.22 250.02,29.03 249.83,29.12 249.93,29.32 
		248.35,30.06 248.6,30.6 250.18,29.83 250.27,30.01 250.56,29.86 250.4,29.61 250.54,29.47 250.86,29.41 251.09,29.36 
		251.11,29.35 252.34,28.75 	"/>
	<polygon class="st1" points="253.58,28.14 254.13,27.87 255.07,27.41 256.2,26.86 258.71,25.62 258.51,25.61 257.91,25.56 
		257.81,25.61 255.98,26.47 254.53,27.15 254.13,27.34 253.14,27.81 253.01,27.87 253.14,27.93 	"/>
	<path class="st2" d="M243.25,23.08h-3.11c-0.02,0.29-0.03,0.59-0.03,0.89c0,0.7,0.06,1.39,0.17,2.07h3.16
		c-0.15-0.67-0.23-1.36-0.23-2.07C243.21,23.67,243.23,23.37,243.25,23.08"/>
	<path class="st2" d="M265.78,23.97c0,0.7-0.06,1.39-0.16,2.07h4.16c0.1-0.75,0.14-1.5,0.14-2.27c0-0.23-0.01-0.46-0.01-0.69h-4.16
		C265.77,23.38,265.78,23.67,265.78,23.97"/>
	<path class="st2" d="M235.08,23.08c-0.01,0.23-0.01,0.46-0.01,0.69c0,0.76,0.05,1.52,0.15,2.27h4.43
		c-0.11-0.68-0.16-1.37-0.16-2.07c0-0.3,0.01-0.59,0.03-0.89H235.08z"/>
	<path class="st2" d="M261.93,26.04h3.05c0.11-0.68,0.17-1.37,0.17-2.07c0-0.3-0.01-0.59-0.03-0.89h-3
		c0.03,0.29,0.04,0.59,0.04,0.89C262.16,24.68,262.08,25.37,261.93,26.04"/>
	<path class="st2" d="M276.5,26.04v-2.96h-4.85c0.01,0.23,0.01,0.46,0.01,0.69c0,0.76-0.05,1.52-0.13,2.27H276.5z"/>
	<path class="st2" d="M233.32,23.78c0-0.23,0.01-0.46,0.01-0.69h-5.07v2.96h5.19C233.36,25.29,233.32,24.54,233.32,23.78"/>
	<path class="st3" d="M239.93,20.53c0.37-1.39,0.97-2.7,1.77-3.9l-4.07-2c-0.75,1.22-1.35,2.53-1.78,3.89L239.93,20.53z"/>
	<path class="st3" d="M242.28,16.92c-0.81,1.19-1.41,2.51-1.77,3.9l2.86,1.41c0.27-1.45,0.87-2.78,1.72-3.92L242.28,16.92z"/>
	<path class="st3" d="M265.1,28.15c-0.45,1.36-1.12,2.63-2,3.78l3.7,1.82c0.82-1.18,1.49-2.45,2-3.78L265.1,28.15z"/>
	<path class="st3" d="M270.16,31.25c-0.49,1.15-1.08,2.25-1.78,3.28l8.38,4.12l1.88-3.84l-8.28-4.07
		C270.3,30.91,270.23,31.08,270.16,31.25"/>
	<path class="st3" d="M234.83,16.3c0.36-0.85,0.77-1.66,1.24-2.44l-5.24-2.58l-1.88,3.84l5.34,2.63
		C234.44,17.26,234.63,16.78,234.83,16.3"/>
	<path class="st3" d="M262.52,31.65c0.89-1.14,1.56-2.42,2.01-3.78l-2.72-1.34c-0.39,1.41-1.11,2.69-2.06,3.76L262.52,31.65z"/>
	<path class="st4" d="M257.69,36.13l1.97,3.21l3.19-1.96l-1.94-3.17C259.92,35,258.84,35.65,257.69,36.13"/>
	<path class="st4" d="M257.35,35.58c1.16-0.47,2.24-1.12,3.22-1.92l-1.59-2.6c-0.93,0.83-2.03,1.48-3.23,1.89L257.35,35.58z"/>
	<path class="st4" d="M247.25,11.94l-2.17-3.54l-3.19,1.96l2.2,3.59C245.05,13.12,246.11,12.45,247.25,11.94"/>
	<path class="st4" d="M247.59,12.48c-1.14,0.5-2.2,1.18-3.16,2.01l1.65,2.69c0.89-0.87,1.96-1.57,3.14-2.04L247.59,12.48z"/>
	<path class="st0" d="M250.52,42.88v4.7h3.73V42.9c-0.58,0.05-1.16,0.08-1.75,0.08C251.83,42.98,251.17,42.95,250.52,42.88"/>
	<path class="st0" d="M254.24,14.61v-3.07c-0.53-0.07-1.07-0.1-1.61-0.1c-0.72,0-1.42,0.06-2.11,0.18v3.12
		c0.7-0.16,1.42-0.25,2.17-0.25C253.21,14.48,253.74,14.52,254.24,14.61"/>
	<path class="st0" d="M250.52,36.97v4.15c0.65,0.07,1.31,0.11,1.97,0.11c0.59,0,1.17-0.03,1.75-0.09v-4.11
		c-0.53,0.06-1.07,0.1-1.61,0.1C251.91,37.14,251.21,37.08,250.52,36.97"/>
	<path class="st0" d="M250.52,33.2v3.12c0.69,0.12,1.4,0.18,2.11,0.18c0.54,0,1.08-0.03,1.61-0.1v-3.08
		c-0.51,0.08-1.03,0.13-1.56,0.13C251.94,33.46,251.21,33.37,250.52,33.2"/>
	<path class="st0" d="M254.24,10.89V6.4c-0.58-0.06-1.16-0.09-1.75-0.09c-0.66,0-1.32,0.04-1.97,0.11v4.54
		c0.69-0.11,1.4-0.17,2.11-0.17C253.17,10.8,253.71,10.83,254.24,10.89"/>
	<path class="st0" d="M254.24,4.65V0h-3.73v4.67c0.65-0.07,1.31-0.1,1.97-0.1C253.08,4.57,253.66,4.6,254.24,4.65"/>
	<path class="st1" d="M260.16,13.98c-1-0.76-2.1-1.36-3.28-1.78l-1.57,2.66c1.22,0.35,2.34,0.95,3.31,1.73L260.16,13.98z"/>
	<path class="st1" d="M245.96,30.64l-1.62,2.74c0.94,0.84,2,1.52,3.13,2.03l1.59-2.68C247.88,32.24,246.83,31.53,245.96,30.64"/>
	<path class="st1" d="M241.83,37.61c0.99,0.77,2.05,1.42,3.17,1.96l2.13-3.6c-1.13-0.52-2.18-1.2-3.13-2.03L241.83,37.61z"/>
	<path class="st1" d="M263.62,8.15l2.3-3.88l-3.2-1.91l-2.32,3.92c0.11,0.05,0.21,0.1,0.32,0.15C261.73,6.92,262.7,7.49,263.62,8.15
		"/>
	<path class="st1" d="M238.47,43.28l3.2,1.91l2.44-4.12c-1.13-0.55-2.19-1.2-3.18-1.95L238.47,43.28z"/>
	<path class="st1" d="M262.73,9.65c-1.01-0.74-2.09-1.36-3.23-1.86l-2.28,3.85c1.17,0.44,2.27,1.04,3.27,1.79L262.73,9.65z"/>
	<path class="st5" d="M260.69,18.9l2.31-1.95c-0.28-0.39-0.58-0.77-0.91-1.14c-0.18-0.2-0.36-0.39-0.55-0.57l-2.27,1.91
		C259.81,17.68,260.29,18.26,260.69,18.9"/>
	<path class="st5" d="M262.03,14.84c0.18,0.18,0.36,0.36,0.53,0.56c0.33,0.37,0.64,0.76,0.93,1.15l2.89-2.43l-1.44-1.72
		L262.03,14.84z"/>
	<path class="st6" d="M265.35,20.49l3.89-1.71c-0.27-0.8-0.53-1.52-0.97-2.47l-3.88,1.7C264.85,18.97,265.1,19.69,265.35,20.49"/>
	<path class="st6" d="M240.9,28.3c0.42,0.99,0.78,1.66,1.21,2.39l2.82-1.24c-0.51-0.73-0.92-1.53-1.22-2.38L240.9,28.3z"/>
	<path class="st6" d="M264.76,20.75c-0.25-0.81-0.49-1.53-0.95-2.48l-2.79,1.23c0.42,0.77,0.73,1.61,0.92,2.5L264.76,20.75z"/>
	<path class="st6" d="M228.65,33.68l1.03,2.47l6.26-2.75c-0.39-0.74-0.74-1.41-1.17-2.4L228.65,33.68z"/>
	<path class="st6" d="M270.84,18.09l7.7-3.36l-1.13-2.44l-7.55,3.31c0.03,0.04,0.1,0.19,0.16,0.34
		C270.26,16.5,270.52,17.17,270.84,18.09"/>
	<path class="st6" d="M240.32,28.56l-3.96,1.74c0.43,0.99,0.79,1.66,1.19,2.4l3.97-1.75C241.1,30.22,240.74,29.55,240.32,28.56"/>
</g>
</svg>
