<svg width="30" height="30" viewBox="0 0 30 30" fill="none" xmlns="http://www.w3.org/2000/svg">
<path fill-rule="evenodd" clip-rule="evenodd" d="M25.0875 14.5515L23.2275 12.4315L23.4875 9.62149C23.5375 9.12149 23.1975 8.66149 22.7175 8.55149L19.9575 7.92149L18.5175 5.49149C18.2575 5.06149 17.7275 4.88149 17.2675 5.08149L14.6675 6.21149L12.0775 5.10149C11.6175 4.90149 11.0775 5.08149 10.8275 5.51149L9.3775 7.93149L6.6275 8.55149C6.1375 8.66149 5.7975 9.11149 5.8475 9.62149L6.1075 12.4215L4.2475 14.5515C3.9175 14.9315 3.9175 15.4915 4.2475 15.8715L6.1075 17.9915L5.8475 20.8115C5.7975 21.3115 6.1375 21.7715 6.6175 21.8815L9.3775 22.5115L10.8175 24.9315C11.0775 25.3615 11.6075 25.5415 12.0775 25.3415L14.6675 24.2115L17.2575 25.3215C17.7175 25.5215 18.2575 25.3415 18.5075 24.9115L19.9475 22.4815L22.7075 21.8515C23.1975 21.7415 23.5275 21.2815 23.4775 20.7815L23.2175 17.9715L25.0775 15.8515C25.4175 15.4915 25.4175 14.9315 25.0875 14.5515ZM15.6675 20.2115H13.6675V18.2115H15.6675V20.2115ZM14.6675 16.2115C14.1175 16.2115 13.6675 15.7615 13.6675 15.2115V11.2115C13.6675 10.6615 14.1175 10.2115 14.6675 10.2115C15.2175 10.2115 15.6675 10.6615 15.6675 11.2115V15.2115C15.6675 15.7615 15.2175 16.2115 14.6675 16.2115Z" fill="#BC9C53"/>
</svg>
