<svg width="30" height="30" viewBox="0 0 30 30" fill="none" xmlns="http://www.w3.org/2000/svg">
<path fill-rule="evenodd" clip-rule="evenodd" d="M16.7926 7.54466C13.5451 6.94671 10.5677 8.85737 9.97365 11.5245C9.84631 12.0962 9.33892 12.5028 8.75297 12.5028C6.14024 12.5028 4.12588 14.5065 4.12588 16.8778C4.12588 19.2351 6.15106 21.2528 8.76547 21.2528C9.45614 21.2528 10.016 21.8125 10.016 22.5028C10.016 23.1932 9.45614 23.7528 8.76547 23.7528C4.87695 23.7528 1.62476 20.7206 1.62476 16.8778C1.62476 13.3434 4.3486 10.509 7.80125 10.0638C9.1311 6.43833 13.2173 4.34504 17.2441 5.08574C21.0786 5.78216 23.9112 8.88836 23.8925 12.5047C26.9276 12.5815 29.3748 15.059 29.3748 18.1278C29.3748 21.2307 26.8515 23.7528 23.7472 23.7528H22.4967C21.806 23.7528 21.2461 23.1932 21.2461 22.5028C21.2461 21.8125 21.806 21.2528 22.4967 21.2528H23.7472C25.4701 21.2528 26.8736 19.85 26.8736 18.1278C26.8736 16.3955 25.4725 15.0028 23.7472 15.0028H22.4967C22.1165 15.0028 21.757 14.83 21.5197 14.5331C21.2823 14.2363 21.193 13.8476 21.2769 13.477C21.8687 10.863 20.0089 8.12821 16.7958 7.54525L16.7926 7.54466Z" fill="white"/>
<path fill-rule="evenodd" clip-rule="evenodd" d="M14.134 14.119C14.6224 13.6308 15.4142 13.6308 15.9026 14.119L19.6543 17.869C20.1426 18.3571 20.1426 19.1486 19.6543 19.6367C19.1659 20.1249 18.3741 20.1249 17.8857 19.6367L15.0183 16.7706L12.1509 19.6367C11.6625 20.1249 10.8707 20.1249 10.3823 19.6367C9.89394 19.1486 9.89394 18.3571 10.3823 17.869L14.134 14.119Z" fill="white"/>
<path fill-rule="evenodd" clip-rule="evenodd" d="M15.0183 13.7528C15.709 13.7528 16.2689 14.3125 16.2689 15.0028V26.2528C16.2689 26.9432 15.709 27.5028 15.0183 27.5028C14.3276 27.5028 13.7677 26.9432 13.7677 26.2528V15.0028C13.7677 14.3125 14.3276 13.7528 15.0183 13.7528Z" fill="white"/>
</svg>
